<svg xmlns="http://www.w3.org/2000/svg" xmlns:xlink="http://www.w3.org/1999/xlink" width="42" height="47" version="1.1" viewBox="0 0 42 47"><title>AirGap_Shield_Logo_newcolors</title><desc>Created with Sketch.</desc><defs><linearGradient id="linearGradient-1" x1="0%" x2="100.01%" y1="49.995%" y2="49.995%"><stop offset="0%" stop-color="#00E8CC"/><stop offset="95%" stop-color="#00E8CC"/></linearGradient><linearGradient id="linearGradient-2" x1="21208%" x2="26123%" y1="6303%" y2="6303%"><stop offset="0%" stop-color="#00E8CC"/><stop offset="95%" stop-color="#00E8CC"/></linearGradient><linearGradient id="linearGradient-3" x1="22730%" x2="26123%" y1="45931%" y2="45931%"><stop offset="0%" stop-color="#00E8CC"/><stop offset="95%" stop-color="#00E8CC"/></linearGradient></defs><g id="Page-1" fill="none" fill-rule="evenodd" stroke="none" stroke-width="1"><g id="01.Tutorial-Copy" fill-rule="nonzero" transform="translate(-496.000000, -501.000000)"><g id="Group" transform="translate(331.000000, 439.000000)"><g id="AirGap_Shield_Logo_newcolors" transform="translate(165.000000, 62.000000)"><g id="Ebene_1"><path id="Shape" fill="#311B58" d="M18.6612464,1.01461187 C18.6612464,0.136073059 18.0371245,-0.221004566 17.2744107,0.221917808 C17.2744107,0.221917808 14.3373663,1.92968037 12.1162264,2.97899543 C9.448105,4.24200913 5.24996703,5.35342466 2.59377742,5.86757991 C0.867345952,6.20091324 0.619532823,7.29954338 0.535092793,8.32237443 C0.407514923,9.87488584 0.322157068,11.7579909 0.273512268,13.3123288 C0.147770051,17.3488584 -0.213853552,21.56621 0.223031816,25.5863014 C0.485530168,28.0009132 1.15095431,30.7232877 2.28630557,32.8922374 C3.93214361,36.0551829 6.11080578,38.9139468 8.72761127,41.3442922 C11.3645265,43.7817352 17.2064916,46.4958904 17.2064916,46.4958904 C18.0068362,46.8675799 18.6621643,46.452968 18.6621643,45.573516 L18.6612464,1.01461187 Z"/><path id="Shape" fill="#00E8CC" d="M12.0712529,5.41917808 C8.24575241,6.92054795 2.74338312,8.17899543 2.74338312,8.17899543 C2.58368133,10.2009132 2.42489736,12.2328767 2.36248516,14.2621005 C2.25051034,17.860274 1.92835327,21.6191781 2.31751167,25.2027397 C2.5515574,27.3552511 3.14355543,29.7817352 4.15316448,31.713242 C5.62627586,34.5260274 7.54912217,37.3442922 9.89508646,39.5114155 C12.2410507,41.6785388 15.2065479,43.0958904 18.0876049,44.4319635 L18.658493,44.6949772 L18.658493,2.30593607 C16.5315853,3.48213999 14.3313617,4.52200318 12.0712529,5.41917808 Z"/><path id="Shape" fill="#311B58" d="M23.3421611,45.5707763 C23.3421611,46.4493151 23.9965713,46.8639269 24.796916,46.490411 C24.796916,46.490411 30.612264,43.7789954 33.2500971,41.3406393 C35.8669161,38.910306 38.0455802,36.0515396 39.6914028,32.8885845 C40.8267541,30.7223744 41.4921782,28 41.7546766,25.5826484 C42.191562,21.5643836 41.8299384,17.3452055 41.7041961,13.3086758 C41.6555513,11.7561644 41.5711113,9.87031963 41.4426156,8.31872146 C41.3581756,7.29589041 41.1103625,6.19634703 39.383931,5.86392694 C36.7286592,5.35068493 32.5296034,4.23744292 29.861482,2.97534247 C27.6586987,1.93150685 24.7299146,0.235616438 24.7299146,0.235616438 C23.9672009,-0.207305936 23.3421611,0.149771689 23.3421611,1.0283105 L23.3421611,45.5707763 Z"/><path id="Shape" fill="#50239F" d="M23.8928569,44.4319635 C26.7729962,43.0958904 29.7339042,41.6840183 32.0844576,39.5114155 C34.435011,37.3388128 36.3532682,34.5260274 37.8263796,31.713242 C38.8359886,29.7817352 39.431658,27.3552511 39.6620324,25.2027397 C40.0511908,21.6191781 39.7290337,17.860274 39.6170589,14.2621005 C39.5537289,12.2328767 39.3949449,10.2018265 39.2361609,8.17899543 C39.2361609,8.17899543 33.7347095,6.92054795 29.909209,5.41917808 C27.6551995,4.52410514 25.4608174,3.48699519 23.3394076,2.31415525 L23.3394076,44.6849315 L23.8928569,44.4319635 Z"/><rect id="Rectangle-path" width="9.462" height="10.052" x="15.034" y="16.609" fill="url(#linearGradient-1)"/></g><g id="Ebene_5" transform="translate(7.000000, 3.500000)"><path id="Shape" fill="#00E8CC" d="M20.8414602,9.48928542 L2.72292325,9.48928542 C1.33172577,9.46261158 0.21761317,8.30483226 0.21761317,6.88578177 C0.21761317,5.46673129 1.33172577,4.30895196 2.72292325,4.28227813 L20.8414602,4.28227813 C22.2326577,4.30895196 23.3467703,5.46673129 23.3467703,6.88578177 C23.3467703,8.30483226 22.2326577,9.46261158 20.8414602,9.48928542 Z"/><path id="Shape" fill="#00E8CC" d="M20.000584,26.2282634 L2.72292325,26.2282634 C1.22183484,26.2282634 0.00496225244,24.9872473 0.00496225244,23.4563763 C0.00496225244,21.9255053 1.22183484,20.6844891 2.72292325,20.6844891 L20.000584,20.6844891 C21.5016724,20.6844891 22.718545,21.9255053 22.718545,23.4563763 C22.718545,24.9872473 21.5016724,26.2282634 20.000584,26.2282634 Z"/><path id="Shape" fill="#50239F" d="M20.8414602,31.4389512 L9.26046527,31.4389512 C7.8692678,31.4122774 6.7551552,30.2544981 6.7551552,28.8354476 C6.7551552,27.4163971 7.8692678,26.2586178 9.26046527,26.231944 L20.8414602,26.231944 C22.2326577,26.2586178 23.3467703,27.4163971 23.3467703,28.8354476 C23.3467703,30.2544981 22.2326577,31.4122774 20.8414602,31.4389512 Z"/><path id="Shape" fill="url(#linearGradient-2)" d="M11.9364727,2.53311381 C11.9364727,1.56421848 11.9364727,0.00368051408 11.9364727,0.00368051408 L10.5614776,0.0846518238 L10.5614776,4.6006426 L14.9959269,4.6006426 L14.9959269,4.28687877 L13.6561187,4.28687877 C12.7063844,4.28687877 11.9364727,3.50169145 11.9364727,2.53311381 Z"/><path id="Shape" fill="url(#linearGradient-3)" d="M11.9364727,39.5360822 C11.9364727,40.5049775 11.9364727,39.8470857 11.9364727,39.8470857 L11.9364727,37.5246813 L14.9959269,37.4676333 L14.9959269,37.7823173 L13.6561187,37.7823173 C13.2000402,37.7823173 12.7626415,37.9670884 12.4401453,38.2959831 C12.1176491,38.6248778 11.9364727,39.0709548 11.9364727,39.5360822 Z"/><path id="Shape" fill="#50239F" d="M18.1925197,17.1815598 L9.37234151,17.1815598 C7.30902481,17.1490372 5.6530928,15.4339474 5.6530928,13.3294418 C5.6530928,11.2249362 7.30902481,9.50984638 9.37234151,9.47732375 L18.1925197,9.47732375 C20.2558364,9.50984638 21.9117684,11.2249362 21.9117684,13.3294418 C21.9117684,15.4339474 20.2558364,17.1490372 18.1925197,17.1815598 Z"/><path id="Shape" fill="#00E8CC" d="M17.8189974,37.7767965 L10.059839,37.7767965 C8.34075023,37.7767965 6.94715341,36.3555498 6.94715341,34.6023531 C6.94715341,32.8491564 8.34075023,31.4279097 10.059839,31.4279097 L17.8189974,31.4279097 C19.5380862,31.4279097 20.931683,32.8491564 20.931683,34.6023531 C20.931683,36.3555498 19.5380862,37.7767965 17.8189974,37.7767965 Z"/><path id="Shape" fill="#50239F" d="M25.6160493,20.6844891 L14.0350543,20.6844891 C12.9748456,20.6612258 12.1272793,19.7780457 12.1272793,18.6965514 C12.1272793,17.6150572 12.9748456,16.7318771 14.0350543,16.7086138 L25.6160493,16.7086138 C26.3224509,16.6931138 26.9817954,17.068586 27.3394565,17.6900303 C27.6971177,18.3114747 27.6971177,19.0816282 27.3394565,19.7030726 C26.9817954,20.3245169 26.3224509,20.6999891 25.6160493,20.6844891 Z"/></g></g></g></g></g></svg>