<svg xmlns="http://www.w3.org/2000/svg" xmlns:xlink="http://www.w3.org/1999/xlink" width="32" height="32" version="1.1" viewBox="0 0 32 32"><title>Group 24</title><desc>Created with Sketch.</desc><defs><path id="path-1" d="M20.7542477,0.115942029 C23.9435018,0.115942029 25.5377318,0.115942029 27.2545337,0.658647343 C29.1288525,1.34086763 30.605011,2.81702609 31.2872313,4.69134493 C31.8299366,6.40788213 31.8299366,8.00264155 31.8299366,11.1916309 L31.8299366,20.8083691 C31.8299366,23.9976232 31.8299366,25.5918531 31.2872313,27.3086551 C30.605011,29.1829739 29.1288525,30.6591324 27.2545337,31.3410879 C25.5377318,31.884058 23.9435018,31.884058 20.7542477,31.884058 L11.1375095,31.884058 C7.94825543,31.884058 6.35376075,31.884058 4.63722355,31.3410879 C2.76290471,30.6591324 1.28674626,29.1829739 0.604525966,27.3086551 C0.0618206522,25.5918531 0.0618206522,23.9976232 0.0618206522,20.8083691 L0.0618206522,11.1916309 C0.0618206522,8.00264155 0.0618206522,6.40788213 0.604525966,4.69134493 C1.28674626,2.81702609 2.76290471,1.34086763 4.63722355,0.658647343 C6.35376075,0.115942029 7.94825543,0.115942029 11.1375095,0.115942029 L20.7542477,0.115942029 Z"/></defs><g id="Landing-Page" fill="none" fill-rule="evenodd" stroke="none" stroke-width="1"><g id="00.0-Landing" transform="translate(-1194.000000, -2096.000000)"><g id="Group-25" transform="translate(179.000000, 1859.000000)"><g id="Group-24" transform="translate(1015.000000, 237.000000)"><g id="Shapes"><g id="Icon-Shape"><mask id="mask-2" fill="#fff"><use xlink:href="#path-1"/></mask><use id="Blue-Icon" fill="#FF0D6A" xlink:href="#path-1"/></g></g><g id="Group-3" fill="#FFF" transform="translate(5.973333, 7.253333)"><path id="Fill-1" d="M19.662336,4.75861333 C19.364096,2.09194667 17.1364693,0.0580266667 14.4535893,0.00298666667 C11.5488427,-0.0277333333 9.16206933,2.28736 9.10446933,5.19125333 L9.09934933,5.19125333 L9.09934933,5.29792 C9.09764267,7.39754667 7.39396267,9.09866667 5.294336,9.09696 C3.19470933,9.09525333 1.49358933,7.39157333 1.495296,5.29194667 C1.495296,5.27914667 1.495296,5.26592 1.49572267,5.25312 C1.54948267,3.18336 3.22798933,1.52490667 5.29860267,1.49632 L5.31950933,1.49632 C5.88398933,1.4976 6.44078933,1.62645333 6.94894933,1.87221333 C7.283456,2.04074667 7.69092267,1.93536 7.90212267,1.6256 C8.024576,1.44426667 8.06254933,1.21856 8.00622933,1.00693333 C7.95332267,0.804266667 7.81508267,0.63488 7.627776,0.541866667 C5.00206933,-0.745386667 1.82980267,0.339626667 0.542122667,2.96490667 C0.261376,3.53792 0.0864426667,4.15658667 0.025856,4.79189333 C-0.121770667,6.27968 0.371882667,7.75978667 1.38308267,8.86058667 C3.028736,10.6730667 5.70350933,11.11808 7.84708267,9.93621333 L7.850496,9.94218667 L7.942656,9.88842667 C9.762816,8.83882667 12.0894293,9.46389333 13.1390293,11.2840533 C13.490176,11.8933333 13.665536,12.5879467 13.6459093,13.2906667 C13.5652693,15.2942933 11.959296,16.9002667 9.95566933,16.9809067 C7.85476267,17.03936 6.10372267,15.38304 6.04526933,13.2821333 C6.044416,13.248 6.04398933,13.2142933 6.04398933,13.1805867 C6.04996267,12.80256 5.74830933,12.4906667 5.369856,12.4846933 C5.36558933,12.4842667 5.36174933,12.4842667 5.35790933,12.4842667 C5.15140267,12.45824 4.943616,12.5213867 4.78702933,12.6587733 C4.636416,12.7901867 4.55022933,12.9809067 4.550656,13.1805867 C4.55364267,16.1032533 6.921216,18.47168 9.843456,18.4759467 C9.913856,18.4759467 9.984256,18.4746667 10.0550827,18.4721067 C12.8109227,18.3530667 15.0180693,16.14592 15.137536,13.3896533 C15.1981227,11.9496533 14.6643627,10.5472 13.6608427,9.51210667 C13.3382827,9.17845333 12.973056,8.88874667 12.5758293,8.64938667 L12.5796693,8.64213333 L12.487936,8.58837333 C11.316736,7.90528 10.5956693,6.65301333 10.592256,5.29792 C10.594816,3.19914667 12.2955093,1.49845333 14.3942827,1.49632 L14.3955627,1.49632 C16.3680427,1.52661333 18.0013227,3.03786667 18.1847893,5.00224 C18.3051093,6.52586667 17.5008427,7.97269333 16.1431893,8.67498667 C15.8074027,8.84181333 15.646976,9.23178667 15.7681493,9.58677333 C15.840256,9.79413333 15.9981227,9.95968 16.201216,10.0416 C16.288256,10.0770133 16.3812693,10.0949333 16.4747093,10.0949333 C16.5869227,10.0949333 16.697856,10.06848 16.797696,10.0177067 C18.7531093,9.03082667 19.894016,6.93674667 19.662336,4.75861333"/></g></g></g></g></g></svg>