<?xml version="1.0" encoding="UTF-8"?>
<svg width="45px" height="45px" viewBox="0 0 45 45" version="1.1" xmlns="http://www.w3.org/2000/svg"
     xmlns:xlink="http://www.w3.org/1999/xlink">
  <!-- Generator: Sketch 51.3 (57544) - http://www.bohemiancoding.com/sketch -->
  <title>ledger copy</title>
  <desc>Created with Sketch.</desc>
  <defs></defs>
  <g id="Page-1" stroke="none" stroke-width="1" fill="none" fill-rule="evenodd">
    <g id="01.Tutorial-Copy" transform="translate(-898.000000, -502.000000)" fill="#333745" fill-rule="nonzero">
      <g id="ledger-copy" transform="translate(898.000000, 502.000000)">
        <path
          d="M37.4122528,0 L16.9077836,0 L16.9077836,27.7758231 L44.4263796,27.7758231 L44.4263499,7.22669012 C44.4375545,3.32495602 41.2778494,4.01789685e-16 37.4122528,0 Z M10.6107827,0 L7.1709619,0 C3.30536525,0 0,3.17793415 0,7.2379995 L0,10.7099774 L10.6107827,10.7099774 L10.6107827,0 Z M0,17.2128676 L10.6107827,17.2128676 L10.6107827,27.9228449 L0,27.9228449 L0,17.2128676 Z M33.8267718,44.9886906 L37.2665926,44.9886906 C41.1321893,44.9886906 44.4375545,41.8107565 44.4375545,37.7506911 L44.4375545,34.2900226 L33.8267718,34.2900226 L33.8267718,44.9886906 Z M16.9077836,34.2900226 L27.5185663,34.2900226 L27.5185663,45 L16.9077836,45 L16.9077836,34.2900226 Z M0,34.2900226 L0,37.7620005 C0,41.6637346 3.14850046,45 7.1709619,45 L10.6107827,45 L10.6107827,34.2900226 L0,34.2900226 Z"
          id="Shape"></path>
      </g>
    </g>
  </g>
</svg>
