<svg xmlns="http://www.w3.org/2000/svg" xmlns:xlink="http://www.w3.org/1999/xlink" width="55" height="51" version="1.1" viewBox="0 0 55 51"><title>metamask-fox</title><desc>Created with Sketch.</desc><g id="Page-1" fill="none" fill-rule="evenodd" stroke="none" stroke-width="1"><g id="03.1-Connect-Wallet" fill-rule="nonzero" transform="translate(-456.000000, -620.000000)"><g id="metamask-fox" transform="translate(456.000000, 620.000000)"><polygon id="Shape" fill="#161616" points="32.955 40.621 32.417 39 28.99 40.28 26.16 40.28 22.733 39 22.195 40.621 22.548 42.331 22.312 42.507 22.649 42.764 22.392 42.966 22.729 43.274 22.523 43.421 23.01 43.998 22.283 46.267 22.283 46.276 22.968 48.629 25.361 47.973 25.815 48.343 26.761 49 28.389 49 29.335 48.343 29.789 47.973 32.165 48.625 32.182 48.629 32.871 46.28 32.871 46.276 32.14 43.998 32.627 43.421 32.421 43.274 32.758 42.966 32.501 42.764 32.838 42.507 32.606 42.331 32.955 40.625"/><g id="Group" fill="#763D16"><path id="Shape" d="M23.6906615,15.5142857 C23.6906615,15.4928571 23.6906615,15.4928571 23.6692607,15.4714286 C23.6692607,15.4714286 23.6692607,15.4714286 23.6692607,15.4714286 C23.6692607,15.4714286 23.6692607,15.45 23.6478599,15.45 L3.06031128,0.15 C3.06031128,0.15 3.03891051,0.15 3.03891051,0.128571429 C3.03891051,0.128571429 3.03891051,0.128571429 3.03891051,0.128571429 C3.01750973,0.128571429 2.99610895,0.128571429 2.99610895,0.128571429 C2.99610895,0.128571429 2.99610895,0.128571429 2.99610895,0.128571429 C2.99610895,0.128571429 2.99610895,0.128571429 2.99610895,0.128571429 C2.97470817,0.128571429 2.97470817,0.128571429 2.95330739,0.15 C2.95330739,0.15 2.95330739,0.15 2.95330739,0.15 C2.95330739,0.15 2.95330739,0.15 2.95330739,0.15 C2.95330739,0.171428571 2.93190661,0.171428571 2.93190661,0.192857143 C2.93190661,0.192857143 2.93190661,0.192857143 2.93190661,0.192857143 L0.192607004,8.31428571 C0.192607004,8.31428571 0.192607004,8.31428571 0.192607004,8.31428571 C0.192607004,8.31428571 0.192607004,8.31428571 0.192607004,8.33571429 C0.192607004,8.35714286 0.192607004,8.35714286 0.192607004,8.37857143 C0.192607004,8.37857143 0.192607004,8.37857143 0.192607004,8.37857143 L1.99027237,17.0571429 L0.898832685,17.8714286 C0.877431907,17.8928571 0.856031128,17.9142857 0.856031128,17.9571429 C0.856031128,18 0.877431907,18.0214286 0.898832685,18.0428571 L2.50389105,19.2642857 L1.30544747,20.2071429 C1.28404669,20.2285714 1.26264591,20.25 1.26264591,20.2928571 C1.26264591,20.3142857 1.28404669,20.3571429 1.30544747,20.3785714 L2.91050584,21.8571429 L1.94747082,22.5428571 C1.92607004,22.5642857 1.90466926,22.5857143 1.90466926,22.6071429 C1.90466926,22.6285714 1.90466926,22.6714286 1.92607004,22.6928571 L4.38715953,25.5857143 C4.38715953,25.5857143 4.38715953,25.5857143 4.38715953,25.5857143 C4.38715953,25.5857143 4.38715953,25.5857143 4.40856031,25.6071429 C4.40856031,25.6071429 4.40856031,25.6071429 4.42996109,25.6071429 C4.42996109,25.6071429 4.42996109,25.6071429 4.45136187,25.6071429 C4.45136187,25.6071429 4.45136187,25.6071429 4.45136187,25.6071429 C4.47276265,25.6071429 4.47276265,25.6071429 4.49416342,25.6071429 C4.49416342,25.6071429 4.49416342,25.6071429 4.49416342,25.6071429 C4.49416342,25.6071429 4.49416342,25.6071429 4.49416342,25.6071429 C4.49416342,25.6071429 4.49416342,25.6071429 4.49416342,25.6071429 C4.49416342,25.6071429 4.5155642,25.6071429 4.5155642,25.6071429 L15.7081712,22.3285714 C15.7081712,22.3285714 15.7081712,22.3285714 15.7081712,22.3285714 C15.7081712,22.3285714 15.7081712,22.3285714 15.7081712,22.3285714 C15.7081712,22.3285714 15.7081712,22.3285714 15.729572,22.3285714 C15.729572,22.3285714 15.7509728,22.3285714 15.7509728,22.3071429 L23.6692607,15.6 C23.6692607,15.6 23.6692607,15.6 23.6906615,15.5785714 C23.6906615,15.5785714 23.6906615,15.5785714 23.7120623,15.5571429 C23.7120623,15.5571429 23.7120623,15.5571429 23.7120623,15.5571429 C23.7120623,15.5571429 23.7120623,15.5571429 23.7120623,15.5357143 C23.6906615,15.5571429 23.6906615,15.5357143 23.6906615,15.5142857 C23.6906615,15.5357143 23.6906615,15.5142857 23.6906615,15.5142857 C23.6906615,15.5142857 23.6906615,15.5142857 23.6906615,15.5142857 Z"/><path id="Shape" d="M54.9571984,8.37857143 C54.9571984,8.35714286 54.9571984,8.35714286 54.9571984,8.33571429 C54.9571984,8.33571429 54.9571984,8.33571429 54.9571984,8.31428571 C54.9571984,8.31428571 54.9571984,8.31428571 54.9571984,8.31428571 L52.2607004,0.192857143 C52.2607004,0.192857143 52.2607004,0.192857143 52.2607004,0.192857143 C52.2607004,0.171428571 52.2392996,0.171428571 52.2392996,0.15 C52.2392996,0.15 52.2392996,0.15 52.2392996,0.15 C52.2392996,0.15 52.2392996,0.15 52.2392996,0.15 C52.2178988,0.15 52.2178988,0.128571429 52.1964981,0.128571429 C52.1964981,0.128571429 52.1964981,0.128571429 52.1964981,0.128571429 C52.1964981,0.128571429 52.1964981,0.128571429 52.1964981,0.128571429 C52.1750973,0.128571429 52.1536965,0.128571429 52.1536965,0.128571429 C52.1536965,0.128571429 52.1536965,0.128571429 52.1536965,0.128571429 C52.1536965,0.128571429 52.1322957,0.128571429 52.1322957,0.15 L31.5447471,15.45 C31.5447471,15.45 31.5447471,15.4714286 31.5233463,15.4714286 C31.5233463,15.4714286 31.5233463,15.4714286 31.5233463,15.4714286 C31.5233463,15.4928571 31.5019455,15.4928571 31.5019455,15.5142857 C31.5019455,15.5142857 31.5019455,15.5142857 31.5019455,15.5142857 C31.5019455,15.5142857 31.5019455,15.5142857 31.5019455,15.5142857 C31.5019455,15.5357143 31.5019455,15.5357143 31.5019455,15.5571429 C31.5019455,15.5571429 31.5019455,15.5571429 31.5019455,15.5785714 C31.5019455,15.5785714 31.5019455,15.5785714 31.5019455,15.5785714 C31.5019455,15.5785714 31.5019455,15.5785714 31.5233463,15.6 C31.5233463,15.6 31.5233463,15.6214286 31.5447471,15.6214286 L39.463035,22.3285714 C39.463035,22.3285714 39.4844358,22.3285714 39.4844358,22.35 C39.4844358,22.35 39.4844358,22.35 39.5058366,22.35 C39.5058366,22.35 39.5058366,22.35 39.5058366,22.35 C39.5058366,22.35 39.5058366,22.35 39.5058366,22.35 L50.6984436,25.6285714 C50.6984436,25.6285714 50.7198444,25.6285714 50.7198444,25.6285714 C50.7412451,25.6285714 50.7412451,25.6285714 50.7626459,25.6285714 C50.7626459,25.6285714 50.7626459,25.6285714 50.7626459,25.6285714 C50.7626459,25.6285714 50.7626459,25.6285714 50.7840467,25.6285714 C50.7840467,25.6285714 50.7840467,25.6285714 50.8054475,25.6285714 C50.8054475,25.6285714 50.8054475,25.6285714 50.8268482,25.6071429 C50.8268482,25.6071429 50.8268482,25.6071429 50.8268482,25.6071429 L53.2879377,22.7142857 C53.3093385,22.6928571 53.3093385,22.6714286 53.3093385,22.6285714 C53.3093385,22.5857143 53.2879377,22.5642857 53.266537,22.5642857 L52.3035019,21.8785714 L53.9085603,20.4 C53.9299611,20.3785714 53.9513619,20.3571429 53.9513619,20.3142857 C53.9513619,20.2928571 53.9299611,20.25 53.9085603,20.2285714 L52.7101167,19.2857143 L54.3151751,18.0642857 C54.3365759,18.0428571 54.3579767,18.0214286 54.3579767,17.9785714 C54.3579767,17.9357143 54.3365759,17.9142857 54.3151751,17.8928571 L53.2451362,17.0785714 L54.9571984,8.37857143 C54.9571984,8.37857143 54.9571984,8.37857143 54.9571984,8.37857143 Z"/></g><g id="Group" fill="#D7C1B3" transform="translate(16.050584, 42.000000)"><path id="Shape" d="M7.59727626,0.0214285714 C7.57587549,8.24723102e-13 7.53307393,8.24723102e-13 7.49027237,0.0214285714 L0.23540856,3.55714286 C0.23540856,3.55714286 0.23540856,3.55714286 0.23540856,3.55714286 C0.214007782,3.55714286 0.214007782,3.57857143 0.192607004,3.6 C0.192607004,3.6 0.192607004,3.6 0.192607004,3.6 C0.192607004,3.6 0.192607004,3.6 0.192607004,3.62142857 C0.192607004,3.64285714 0.192607004,3.64285714 0.192607004,3.66428571 C0.192607004,3.66428571 0.192607004,3.66428571 0.192607004,3.66428571 C0.192607004,3.66428571 0.192607004,3.66428571 0.192607004,3.66428571 C0.192607004,3.70714286 0.214007782,3.72857143 0.256809339,3.75 L6.99805447,6.94285714 C7.01945525,6.94285714 7.01945525,6.94285714 7.04085603,6.94285714 C7.06225681,6.94285714 7.08365759,6.94285714 7.10505837,6.92142857 C7.12645914,6.9 7.14785992,6.85714286 7.14785992,6.83571429 L7.10505837,4.84285714 L7.6614786,0.107142857 C7.64007782,0.0857142857 7.61867704,0.0428571429 7.59727626,0.0214285714 Z"/><path id="Shape" d="M22.8774319,3.66428571 C22.8774319,3.64285714 22.8774319,3.64285714 22.8774319,3.62142857 C22.8774319,3.62142857 22.8774319,3.62142857 22.8774319,3.6 C22.8774319,3.6 22.8774319,3.6 22.8774319,3.6 C22.8774319,3.57857143 22.8560311,3.57857143 22.8346304,3.55714286 C22.8346304,3.55714286 22.8346304,3.55714286 22.8346304,3.55714286 L15.5797665,0.0214285714 C15.536965,8.24719633e-13 15.4941634,8.24719633e-13 15.4727626,0.0214285714 C15.4513619,0.0428571429 15.4299611,0.0857142857 15.4299611,0.128571429 L16.0077821,4.86428571 L15.9435798,6.85714286 C15.9435798,6.9 15.9649805,6.92142857 15.9863813,6.94285714 C16.0077821,6.96428571 16.0291829,6.96428571 16.0505837,6.96428571 C16.0719844,6.96428571 16.0719844,6.96428571 16.0933852,6.96428571 L22.8346304,3.77142857 C22.8560311,3.77142857 22.8560311,3.75 22.8560311,3.75 C22.8560311,3.75 22.8560311,3.75 22.8560311,3.75 C22.8560311,3.70714286 22.8774319,3.68571429 22.8774319,3.66428571 C22.8774319,3.66428571 22.8774319,3.66428571 22.8774319,3.66428571 C22.8774319,3.66428571 22.8774319,3.66428571 22.8774319,3.66428571 Z"/></g><g id="Group" fill="#E4761B" transform="translate(0.642023, 0.000000)"><path id="Shape" d="M53.8871595,37.1142857 C53.8871595,37.1142857 53.8871595,37.1142857 53.8871595,37.1142857 C53.8871595,37.1142857 53.8871595,37.0928571 53.8871595,37.1142857 C53.8657588,37.0928571 53.8657588,37.0714286 53.844358,37.05 C53.844358,37.05 53.844358,37.05 53.844358,37.05 C53.844358,37.05 53.844358,37.05 53.844358,37.05 C53.8229572,37.0285714 53.8015564,37.0285714 53.8015564,37.0285714 C53.8015564,37.0285714 53.8015564,37.0285714 53.8015564,37.0285714 C53.8015564,37.0285714 53.8015564,37.0285714 53.8015564,37.0285714 L43.8715953,37.0285714 C43.8287938,37.0285714 43.807393,37.05 43.7859922,37.0714286 L38.2859922,45.3428571 L37.3229572,37.2 C37.3229572,37.1571429 37.3015564,37.1357143 37.2587549,37.1142857 C37.2159533,37.0928571 37.1731518,37.1142857 37.151751,37.1357143 L30.9027237,42.0214286 C30.881323,42.0428571 30.8599222,42.0857143 30.8599222,42.1071429 C30.8599222,42.15 30.881323,42.1714286 30.9241245,42.1928571 L38.1789883,45.7285714 C38.1789883,45.7285714 38.1789883,45.7285714 38.1789883,45.7285714 C38.1789883,45.7285714 38.1789883,45.7285714 38.2003891,45.7285714 C38.2003891,45.7285714 38.2003891,45.7285714 38.2003891,45.7285714 L50.3346304,49.0714286 C50.3346304,49.0714286 50.3560311,49.0714286 50.3560311,49.0714286 C50.3988327,49.0714286 50.4416342,49.05 50.463035,48.9857143 L53.9299611,37.1357143 C53.9299611,37.1357143 53.9299611,37.1357143 53.9299611,37.1357143 C53.8871595,37.1357143 53.8871595,37.1357143 53.8871595,37.1142857 Z"/><path id="Shape" d="M23.7762646,27.9 L23.0486381,15.5357143 C23.0486381,15.5357143 23.0486381,15.5142857 23.0486381,15.5142857 C23.0486381,15.5142857 23.0486381,15.5142857 23.0486381,15.4928571 L19.8171206,6.68571429 C19.7957198,6.66428571 19.7743191,6.64285714 19.7529183,6.62142857 L2.39688716,0.128571429 C2.3540856,0.107142857 2.28988327,0.128571429 2.26848249,0.171428571 C2.24708171,0.214285714 2.24708171,0.278571429 2.28988327,0.3 L22.770428,15.5142857 L14.959144,22.1357143 C14.959144,22.1357143 14.959144,22.1357143 14.959144,22.1357143 C14.959144,22.1357143 14.959144,22.1357143 14.9377432,22.1571429 L11.5564202,27.3 C11.5350195,27.3214286 11.5350195,27.3642857 11.5564202,27.4071429 C11.577821,27.45 11.5992218,27.4714286 11.6420233,27.4714286 L23.6692607,28.0071429 C23.6692607,28.0071429 23.6692607,28.0071429 23.6692607,28.0071429 C23.6906615,28.0071429 23.7120623,28.0071429 23.733463,27.9857143 C23.733463,27.9857143 23.733463,27.9857143 23.733463,27.9857143 C23.733463,27.9857143 23.733463,27.9857143 23.7548638,27.9642857 C23.7548638,27.9642857 23.7762646,27.9428571 23.7762646,27.9214286 C23.7762646,27.9214286 23.7762646,27.9214286 23.7762646,27.9214286 C23.7762646,27.9214286 23.7762646,27.9 23.7762646,27.9 C23.7762646,27.9 23.7762646,27.9 23.7762646,27.9 Z"/><path id="Shape" d="M42.3093385,27.4071429 C42.3307393,27.3642857 42.3307393,27.3214286 42.3093385,27.3 L38.9280156,22.1785714 C38.9280156,22.1785714 38.9280156,22.1785714 38.9066148,22.1571429 C38.9066148,22.1571429 38.9066148,22.1571429 38.9066148,22.1571429 L30.9883268,15.45 C30.9669261,15.4285714 30.9241245,15.4071429 30.881323,15.4285714 C30.8385214,15.45 30.8171206,15.4714286 30.8171206,15.5142857 L30.0894942,27.8785714 C30.0894942,27.8785714 30.0894942,27.8785714 30.0894942,27.8785714 C30.0894942,27.9 30.0894942,27.9 30.0894942,27.9214286 C30.0894942,27.9214286 30.0894942,27.9214286 30.0894942,27.9214286 C30.0894942,27.9428571 30.1108949,27.9428571 30.1108949,27.9642857 C30.1108949,27.9642857 30.1108949,27.9857143 30.1322957,27.9857143 C30.1322957,27.9857143 30.1322957,27.9857143 30.1322957,27.9857143 C30.1536965,27.9857143 30.1750973,28.0071429 30.1964981,28.0071429 C30.1964981,28.0071429 30.1964981,28.0071429 30.1964981,28.0071429 L42.2237354,27.4714286 C42.266537,27.4714286 42.3093385,27.45 42.3093385,27.4071429 Z"/><path id="Shape" d="M16.7568093,37.1357143 C16.7354086,37.1142857 16.692607,37.1142857 16.6498054,37.1142857 C16.6070039,37.1357143 16.5856031,37.1571429 16.5856031,37.2 L15.6225681,45.3428571 L10.1225681,37.0714286 C10.1011673,37.05 10.0797665,37.0285714 10.036965,37.0285714 L0.107003891,37.0285714 C0.107003891,37.0285714 0.107003891,37.0285714 0.107003891,37.0285714 C0.107003891,37.0285714 0.107003891,37.0285714 0.107003891,37.0285714 C0.0856031128,37.0285714 0.0642023346,37.0285714 0.0642023346,37.05 C0.0642023346,37.05 0.0642023346,37.05 0.0642023346,37.05 C0.0642023346,37.05 0.0642023346,37.05 0.0642023346,37.05 C0.0428015564,37.0714286 0.0428015564,37.0714286 0.0428015564,37.0928571 C0.0428015564,37.0928571 0.0428015564,37.0928571 0.0428015564,37.0928571 C0.0428015564,37.0928571 0.0428015564,37.0928571 0.0428015564,37.0928571 C0.0428015564,37.1142857 0.0428015564,37.1357143 0.0428015564,37.1357143 C0.0428015564,37.1357143 0.0428015564,37.1357143 0.0428015564,37.1357143 L3.48832685,48.9857143 C3.50972763,49.0285714 3.55252918,49.0714286 3.59533074,49.0714286 C3.59533074,49.0714286 3.61673152,49.0714286 3.61673152,49.0714286 L15.7509728,45.7285714 C15.7509728,45.7285714 15.7509728,45.7285714 15.7509728,45.7285714 C15.7509728,45.7285714 15.7509728,45.7285714 15.7723735,45.7285714 C15.7723735,45.7285714 15.7723735,45.7285714 15.7723735,45.7285714 L23.0272374,42.1928571 C23.0700389,42.1714286 23.0914397,42.15 23.0914397,42.1071429 C23.0914397,42.0642857 23.0700389,42.0428571 23.0486381,42.0214286 L16.7568093,37.1357143 Z"/></g><g id="Group" fill="#233447" transform="translate(16.906615, 30.214286)"><path id="Shape" d="M4.62256809,0.107142857 C4.60116732,0.0642857143 4.53696498,0.0214285714 4.47276265,0.0642857143 L0.214007782,2.01428571 C0.171206226,2.03571429 0.149805447,2.07857143 0.149805447,2.12142857 C0.149805447,2.16428571 0.192607004,2.20714286 0.23540856,2.20714286 L6.27042802,3.98571429 C6.27042802,3.98571429 6.29182879,3.98571429 6.29182879,3.98571429 C6.31322957,3.98571429 6.35603113,3.96428571 6.37743191,3.94285714 C6.39883268,3.9 6.42023346,3.85714286 6.39883268,3.83571429 L4.62256809,0.107142857 Z"/><path id="Shape" d="M21.1439689,1.99285714 L16.8638132,0.0428571429 C16.8210117,0.0214285714 16.7568093,0.0428571429 16.7140078,0.0857142857 L14.9377432,3.81428571 C14.9163424,3.85714286 14.9163424,3.9 14.959144,3.92142857 C14.9805447,3.94285714 15.0019455,3.96428571 15.0447471,3.96428571 C15.0447471,3.96428571 15.0661479,3.96428571 15.0661479,3.96428571 L21.1225681,2.18571429 C21.1653696,2.16428571 21.1867704,2.14285714 21.2081712,2.1 C21.2081712,2.05714286 21.1867704,2.01428571 21.1439689,1.99285714 Z"/></g><g id="Group" fill="#CD6116" transform="translate(10.486381, 27.214286)"><path id="Shape" d="M6.84824903,9.9 L0.192607004,9.81428571 C0.149805447,9.81428571 0.107003891,9.83571429 0.107003891,9.87857143 C0.0856031128,9.92142857 0.0856031128,9.96428571 0.107003891,9.98571429 L5.75680934,18.4928571 C5.77821012,18.5142857 5.82101167,18.5357143 5.84241245,18.5357143 C5.84241245,18.5357143 5.86381323,18.5357143 5.86381323,18.5357143 C5.90661479,18.5357143 5.94941634,18.4928571 5.94941634,18.45 L6.95525292,10.0285714 C6.95525292,10.0071429 6.95525292,9.96428571 6.93385214,9.94285714 C6.91245136,9.92142857 6.86964981,9.9 6.84824903,9.9 Z"/><path id="Shape" d="M34.0914397,9.87857143 C34.0700389,9.83571429 34.0272374,9.81428571 34.0058366,9.81428571 C34.0058366,9.81428571 34.0058366,9.81428571 34.0058366,9.81428571 L27.3287938,9.9 C27.307393,9.9 27.2645914,9.92142857 27.2431907,9.94285714 C27.2217899,9.96428571 27.2217899,9.98571429 27.2217899,10.0285714 L28.2276265,18.45 C28.2276265,18.4928571 28.270428,18.5357143 28.3132296,18.5357143 C28.3132296,18.5357143 28.3346304,18.5357143 28.3346304,18.5357143 C28.3774319,18.5357143 28.3988327,18.5142857 28.4202335,18.4928571 L34.0914397,9.98571429 C34.1128405,9.94285714 34.1128405,9.9 34.0914397,9.87857143 Z"/><path id="Shape" d="M13.9319066,0.664285714 C13.9319066,0.664285714 13.9319066,0.664285714 13.9319066,0.664285714 C13.9319066,0.664285714 13.9319066,0.664285714 13.9319066,0.664285714 C13.9319066,0.664285714 13.9319066,0.642857143 13.9319066,0.664285714 C13.9319066,0.642857143 13.9319066,0.642857143 13.9105058,0.642857143 C13.9105058,0.642857143 13.9105058,0.642857143 13.9105058,0.621428571 C13.9105058,0.621428571 13.9105058,0.621428571 13.8891051,0.6 C13.8891051,0.6 13.8891051,0.6 13.8891051,0.6 C13.8891051,0.6 13.8891051,0.6 13.8891051,0.6 C13.8891051,0.6 13.8891051,0.6 13.8891051,0.6 C13.8891051,0.6 13.8891051,0.6 13.8891051,0.6 C13.8677043,0.6 13.8677043,0.6 13.8463035,0.578571429 C13.8463035,0.578571429 13.8463035,0.578571429 13.8463035,0.578571429 L1.81906615,0.0428571429 C1.77626459,0.0428571429 1.73346304,0.0642857143 1.71206226,0.107142857 C1.69066148,0.15 1.71206226,0.192857143 1.73346304,0.235714286 L6.61284047,5.18571429 C6.61284047,5.18571429 6.61284047,5.18571429 6.63424125,5.18571429 C6.63424125,5.18571429 6.63424125,5.18571429 6.65564202,5.18571429 C6.6770428,5.18571429 6.6770428,5.20714286 6.69844358,5.20714286 C6.69844358,5.20714286 6.69844358,5.20714286 6.69844358,5.20714286 C6.69844358,5.20714286 6.69844358,5.20714286 6.69844358,5.20714286 C6.71984436,5.20714286 6.71984436,5.20714286 6.74124514,5.20714286 L10.9143969,3.3 L12.6478599,6.94285714 C12.6692607,6.98571429 12.7120623,7.00714286 12.7548638,7.00714286 C12.7548638,7.00714286 12.7548638,7.00714286 12.7762646,7.00714286 C12.8190661,7.00714286 12.8618677,6.96428571 12.8618677,6.92142857 L13.9747082,0.728571429 C13.9747082,0.728571429 13.9747082,0.728571429 13.9747082,0.728571429 C13.9319066,0.685714286 13.9319066,0.664285714 13.9319066,0.664285714 Z"/><path id="Shape" d="M27.4785992,5.20714286 C27.5,5.20714286 27.5,5.20714286 27.5214008,5.20714286 C27.5428016,5.20714286 27.5642023,5.20714286 27.5642023,5.18571429 C27.5642023,5.18571429 27.5642023,5.18571429 27.5856031,5.18571429 C27.5856031,5.18571429 27.6070039,5.18571429 27.6070039,5.18571429 L32.4649805,0.235714286 C32.4863813,0.214285714 32.5077821,0.15 32.4863813,0.107142857 C32.4649805,0.0642857143 32.4435798,0.0428571429 32.3793774,0.0428571429 L20.3521401,0.578571429 C20.3521401,0.578571429 20.3521401,0.578571429 20.3521401,0.578571429 C20.3307393,0.578571429 20.3307393,0.578571429 20.3093385,0.6 C20.3093385,0.6 20.3093385,0.6 20.3093385,0.6 C20.3093385,0.6 20.3093385,0.6 20.3093385,0.6 C20.3093385,0.6 20.3093385,0.6 20.3093385,0.6 C20.3093385,0.6 20.3093385,0.6 20.3093385,0.6 C20.3093385,0.6 20.2879377,0.6 20.2879377,0.621428571 C20.2879377,0.621428571 20.2879377,0.621428571 20.2879377,0.642857143 C20.2879377,0.642857143 20.2879377,0.642857143 20.2879377,0.664285714 C20.2879377,0.664285714 20.2879377,0.664285714 20.2879377,0.685714286 C20.2879377,0.685714286 20.2879377,0.685714286 20.2879377,0.685714286 C20.2879377,0.685714286 20.2879377,0.685714286 20.2879377,0.685714286 C20.2879377,0.707142857 20.2879377,0.707142857 20.2879377,0.728571429 C20.2879377,0.728571429 20.2879377,0.728571429 20.2879377,0.728571429 L21.4007782,6.92142857 C21.4007782,6.96428571 21.4435798,7.00714286 21.4863813,7.00714286 C21.4863813,7.00714286 21.4863813,7.00714286 21.5077821,7.00714286 C21.5505837,7.00714286 21.5933852,6.98571429 21.614786,6.94285714 L23.348249,3.3 L27.4785992,5.20714286 Z"/></g><g id="Group" fill="#E2761B" transform="translate(30.389105, 0.000000)"><path id="Shape" d="M21.8501946,0.192857143 C21.8287938,0.15 21.7645914,0.128571429 21.7217899,0.15 L4.36575875,6.64285714 C4.34435798,6.66428571 4.3229572,6.68571429 4.30155642,6.70714286 L1.07003891,15.4928571 C1.04863813,15.5357143 1.07003891,15.5785714 1.11284047,15.6214286 C1.13424125,15.6428571 1.15564202,15.6428571 1.1770428,15.6428571 C1.19844358,15.6428571 1.21984436,15.6428571 1.24124514,15.6214286 L21.8287938,0.321428571 C21.8715953,0.3 21.8929961,0.235714286 21.8501946,0.192857143 Z"/><path id="Shape" d="M0.556420233,27.8785714 C0.556420233,27.8357143 0.492217899,27.7928571 0.449416342,27.7928571 C0.385214008,27.7928571 0.342412451,27.8357143 0.342412451,27.9 L0.0642023346,31.8 C0.0642023346,31.8214286 0.0642023346,31.8428571 0.0856031128,31.8642857 L1.4766537,34.1571429 C1.49805447,34.2 1.54085603,34.2 1.56225681,34.2 C1.58365759,34.2 1.58365759,34.2 1.60505837,34.2 C1.64785992,34.1785714 1.69066148,34.1357143 1.6692607,34.0714286 L0.556420233,27.8785714 Z"/></g><g id="Group" fill="#E4751F" transform="translate(11.984436, 27.214286)"><path id="Shape" d="M5.26459144,5.01428571 L0.385214008,0.0642857143 C0.342412451,0.0214285714 0.278210117,0.0214285714 0.256809339,0.0428571429 C0.214007782,0.0642857143 0.192607004,0.128571429 0.214007782,0.171428571 L5.26459144,10.0285714 C5.28599222,10.0714286 5.32879377,10.0928571 5.35019455,10.0928571 C5.35019455,10.0928571 5.37159533,10.0928571 5.37159533,10.0928571 C5.41439689,10.0714286 5.45719844,10.0285714 5.45719844,9.98571429 L5.28599222,5.07857143 C5.28599222,5.07857143 5.26459144,5.03571429 5.26459144,5.01428571 Z"/><path id="Shape" d="M30.9455253,0.0642857143 C30.9027237,0.0428571429 30.8385214,0.0428571429 30.8171206,0.0857142857 L25.959144,5.03571429 C25.9377432,5.05714286 25.9377432,5.07857143 25.9377432,5.1 L25.7451362,10.0071429 C25.7451362,10.05 25.766537,10.0928571 25.8307393,10.1142857 C25.8307393,10.1142857 25.8521401,10.1142857 25.8521401,10.1142857 C25.8949416,10.1142857 25.9377432,10.0928571 25.9377432,10.05 L30.9883268,0.192857143 C31.0097276,0.15 30.9883268,0.0857142857 30.9455253,0.0642857143 Z"/><path id="Shape" d="M18.6614786,4.52142857 C18.6400778,4.47857143 18.5972763,4.45714286 18.5330739,4.47857143 C18.4902724,4.5 18.4474708,4.54285714 18.4474708,4.58571429 L18.42607,14.1857143 C18.42607,14.25 18.4688716,14.2928571 18.5330739,14.2928571 C18.5330739,14.2928571 18.5330739,14.2928571 18.5330739,14.2928571 C18.5758755,14.2928571 18.618677,14.25 18.6400778,14.2071429 L20.0525292,6.9 C20.0525292,6.87857143 20.0525292,6.85714286 20.0311284,6.81428571 L18.6614786,4.52142857 Z"/><path id="Shape" d="M12.7120623,4.58571429 C12.7120623,4.58571429 12.7120623,4.58571429 12.7120623,4.58571429 L12.4338521,0.685714286 C12.4338521,0.621428571 12.3910506,0.578571429 12.3268482,0.578571429 C12.2626459,0.578571429 12.2198444,0.621428571 12.2198444,0.664285714 L11.1070039,6.85714286 C11.1070039,6.87857143 11.1070039,6.87857143 11.1070039,6.9 C11.1070039,6.9 11.1070039,6.9 11.1070039,6.9 L12.5194553,14.2071429 C12.5194553,14.25 12.5836576,14.2928571 12.6264591,14.2928571 C12.6264591,14.2928571 12.6264591,14.2928571 12.6264591,14.2928571 C12.6906615,14.2928571 12.733463,14.25 12.733463,14.1857143 L12.7120623,4.58571429 C12.7120623,4.58571429 12.7120623,4.58571429 12.7120623,4.58571429 Z"/></g><path id="Shape" fill="#F6851B" d="M54.5291829,37.1571429 C54.5291829,37.1357143 54.5291829,37.1142857 54.5291829,37.1142857 C54.5291829,37.1142857 54.5291829,37.1142857 54.5291829,37.1142857 L50.7840467,25.5 C50.7840467,25.5 50.7840467,25.5 50.7840467,25.5 C50.7840467,25.5 50.7840467,25.5 50.7840467,25.5 C50.7840467,25.4785714 50.7840467,25.4785714 50.7626459,25.4785714 C50.7626459,25.4785714 50.7626459,25.4785714 50.7626459,25.4785714 C50.7626459,25.4785714 50.7412451,25.4571429 50.7412451,25.4571429 C50.7412451,25.4571429 50.7412451,25.4571429 50.7198444,25.4571429 C50.7198444,25.4571429 50.7198444,25.4571429 50.6984436,25.4571429 L39.5058366,22.1785714 C39.463035,22.1571429 39.4202335,22.1785714 39.3988327,22.2214286 C39.3774319,22.2642857 39.3774319,22.3071429 39.3988327,22.35 L42.7373541,27.4285714 L37.9435798,36.7928571 L38.114786,32.3785714 C38.114786,32.3357143 38.0933852,32.3142857 38.0719844,32.2928571 C38.0505837,32.2714286 38.0077821,32.2714286 37.9863813,32.2714286 L31.9299611,34.05 C31.9299611,34.05 31.9299611,34.05 31.9299611,34.05 C31.9299611,34.05 31.9299611,34.05 31.9299611,34.05 C31.9299611,34.05 31.9299611,34.05 31.9085603,34.05 C31.9085603,34.05 31.9085603,34.05 31.9085603,34.05 C31.9085603,34.05 31.9085603,34.05 31.9085603,34.05 C31.9085603,34.05 31.8871595,34.0714286 31.8871595,34.0714286 C31.8871595,34.0714286 31.8871595,34.0714286 31.8871595,34.0714286 C31.8871595,34.0714286 31.8871595,34.0714286 31.8871595,34.0714286 C31.8871595,34.0714286 31.8871595,34.0714286 31.8871595,34.0714286 C31.8871595,34.0714286 31.8871595,34.0928571 31.8657588,34.0928571 L30.6673152,40.2857143 L30.688716,31.8214286 L30.9669261,27.9214286 C30.9669261,27.9214286 30.9669261,27.9214286 30.9669261,27.9214286 C30.9669261,27.9214286 30.9669261,27.9214286 30.9669261,27.9214286 L31.6945525,15.5785714 L34.92607,6.79285714 C34.9474708,6.75 34.92607,6.72857143 34.9046693,6.68571429 C34.8832685,6.64285714 34.8618677,6.64285714 34.8190661,6.64285714 L20.3735409,6.64285714 C20.3521401,6.64285714 20.3307393,6.64285714 20.3093385,6.66428571 C20.3093385,6.66428571 20.3093385,6.66428571 20.3093385,6.66428571 C20.3093385,6.66428571 20.3093385,6.66428571 20.3093385,6.66428571 C20.2879377,6.68571429 20.2879377,6.68571429 20.2879377,6.70714286 C20.2879377,6.70714286 20.2879377,6.70714286 20.2879377,6.70714286 C20.2879377,6.70714286 20.2879377,6.72857143 20.2879377,6.72857143 C20.2879377,6.75 20.2879377,6.75 20.2879377,6.77142857 C20.2879377,6.77142857 20.2879377,6.77142857 20.2879377,6.77142857 L23.5194553,15.5571429 L24.2470817,27.9 C24.2470817,27.9 24.2470817,27.9 24.2470817,27.9 C24.2470817,27.9 24.2470817,27.9 24.2470817,27.9 L24.5252918,31.8 L24.5466926,40.2642857 L23.348249,34.0714286 C23.348249,34.05 23.348249,34.05 23.3268482,34.05 C23.3268482,34.05 23.3268482,34.05 23.3268482,34.05 C23.3268482,34.05 23.3268482,34.05 23.3268482,34.05 C23.3268482,34.05 23.3268482,34.05 23.3268482,34.05 C23.3268482,34.05 23.3054475,34.0285714 23.3054475,34.0285714 C23.3054475,34.0285714 23.3054475,34.0285714 23.3054475,34.0285714 C23.3054475,34.0285714 23.3054475,34.0285714 23.3054475,34.0285714 C23.3054475,34.0285714 23.3054475,34.0285714 23.2840467,34.0285714 C23.2840467,34.0285714 23.2840467,34.0285714 23.2840467,34.0285714 C23.2840467,34.0285714 23.2840467,34.0285714 23.2840467,34.0285714 L17.2490272,32.25 C17.2062257,32.25 17.1848249,32.25 17.1634241,32.2714286 C17.1420233,32.2928571 17.1206226,32.3357143 17.1206226,32.3571429 L17.270428,36.7928571 L12.4124514,27.3642857 L15.7509728,22.2857143 C15.7723735,22.2428571 15.7723735,22.2 15.7509728,22.1571429 C15.729572,22.1142857 15.6867704,22.1142857 15.6439689,22.1142857 L4.45136187,25.3928571 C4.45136187,25.3928571 4.45136187,25.3928571 4.42996109,25.3928571 C4.42996109,25.3928571 4.42996109,25.3928571 4.40856031,25.3928571 C4.40856031,25.3928571 4.38715953,25.3928571 4.38715953,25.4142857 C4.38715953,25.4142857 4.38715953,25.4142857 4.38715953,25.4142857 C4.38715953,25.4142857 4.36575875,25.4357143 4.36575875,25.4357143 C4.36575875,25.4357143 4.36575875,25.4357143 4.36575875,25.4357143 C4.36575875,25.4357143 4.36575875,25.4357143 4.36575875,25.4357143 L0.642023346,37.0928571 C0.642023346,37.0928571 0.642023346,37.0928571 0.642023346,37.0928571 C0.642023346,37.1142857 0.642023346,37.1357143 0.642023346,37.1357143 C0.642023346,37.1357143 0.642023346,37.1357143 0.642023346,37.1571429 C0.642023346,37.1571429 0.642023346,37.1571429 0.642023346,37.1571429 C0.642023346,37.1785714 0.663424125,37.2 0.684824903,37.2 C0.684824903,37.2 0.684824903,37.2 0.684824903,37.2 C0.706225681,37.2214286 0.727626459,37.2214286 0.749027237,37.2214286 L10.6789883,37.2214286 L17.2918288,37.3071429 L23.5194553,42.1714286 C23.5194553,42.1714286 23.5194553,42.1714286 23.5194553,42.1714286 C23.5194553,42.1714286 23.5194553,42.1714286 23.5194553,42.1714286 C23.540856,42.1714286 23.540856,42.1928571 23.5622568,42.1928571 C23.5836576,42.1928571 23.6050584,42.1928571 23.6050584,42.1714286 C23.6050584,42.1714286 23.6050584,42.1714286 23.6050584,42.1714286 C23.6050584,42.1714286 23.6050584,42.1714286 23.6050584,42.1714286 L24.6108949,41.4857143 L30.4747082,41.4857143 L31.4805447,42.1714286 C31.4805447,42.1714286 31.4805447,42.1714286 31.4805447,42.1714286 C31.4805447,42.1714286 31.4805447,42.1714286 31.4805447,42.1714286 C31.5019455,42.1714286 31.5233463,42.1928571 31.5233463,42.1928571 C31.5447471,42.1928571 31.5661479,42.1928571 31.5661479,42.1714286 C31.5661479,42.1714286 31.5661479,42.1714286 31.5661479,42.1714286 C31.5661479,42.1714286 31.5661479,42.1714286 31.5661479,42.1714286 L37.7937743,37.3071429 L44.4280156,37.2214286 L54.3579767,37.2214286 C54.3793774,37.2214286 54.4007782,37.2214286 54.422179,37.2 C54.422179,37.2 54.422179,37.2 54.422179,37.2 C54.5077821,37.2214286 54.5077821,37.2 54.5291829,37.1571429 C54.5291829,37.1785714 54.5291829,37.1785714 54.5291829,37.1571429 C54.5291829,37.1571429 54.5291829,37.1571429 54.5291829,37.1571429 Z"/><path id="Shape" fill="#C0AD9E" d="M38.9066148,45.5785714 C38.885214,45.5357143 38.8210117,45.5142857 38.7782101,45.5357143 L32.1867704,48.6642857 L32.2509728,46.8428571 C32.2509728,46.8214286 32.2509728,46.8214286 32.2509728,46.8 C32.2509728,46.8 32.2509728,46.8 32.2509728,46.8 C32.2509728,46.7785714 32.229572,46.7785714 32.229572,46.7571429 C32.229572,46.7571429 32.229572,46.7571429 32.229572,46.7571429 L31.6731518,46.2857143 C31.6731518,46.2857143 31.6731518,46.2857143 31.6731518,46.2857143 C31.6731518,46.2857143 31.6731518,46.2857143 31.651751,46.2857143 C31.651751,46.2857143 31.651751,46.2857143 31.651751,46.2857143 C31.651751,46.2857143 31.651751,46.2857143 31.651751,46.2857143 C31.651751,46.2857143 31.6303502,46.2857143 31.6303502,46.2857143 C31.6303502,46.2857143 31.6303502,46.2857143 31.6303502,46.2857143 C31.6303502,46.2857143 31.6303502,46.2857143 31.6303502,46.2857143 C31.6303502,46.2857143 31.6303502,46.2857143 31.6303502,46.2857143 C31.6303502,46.2857143 31.6303502,46.2857143 31.6303502,46.2857143 L23.540856,46.2857143 C23.540856,46.2857143 23.540856,46.2857143 23.5194553,46.2857143 C23.5194553,46.2857143 23.5194553,46.2857143 23.4980545,46.2857143 C23.4766537,46.2857143 23.4552529,46.3071429 23.4552529,46.3071429 C23.4552529,46.3071429 23.4552529,46.3071429 23.4552529,46.3071429 L22.9416342,46.7785714 C22.9416342,46.7785714 22.9416342,46.7785714 22.9416342,46.7785714 C22.9202335,46.8 22.9202335,46.8 22.9202335,46.8214286 C22.9202335,46.8214286 22.9202335,46.8214286 22.9202335,46.8214286 C22.9202335,46.8428571 22.9202335,46.8428571 22.9202335,46.8642857 L22.963035,48.6857143 L16.3715953,45.5571429 C16.3287938,45.5357143 16.2645914,45.5571429 16.2431907,45.6 C16.2217899,45.6428571 16.2217899,45.7071429 16.2645914,45.75 L18.618677,47.6785714 C18.618677,47.6785714 18.618677,47.6785714 18.618677,47.6785714 C18.618677,47.6785714 18.618677,47.6785714 18.618677,47.6785714 L23.4124514,51 C23.4124514,51 23.4124514,51 23.4124514,51 C23.4124514,51 23.4124514,51 23.4124514,51 C23.4124514,51 23.4124514,51 23.4124514,51 C23.4124514,51 23.4124514,51 23.4124514,51 C23.4124514,51 23.4124514,51 23.4124514,51 C23.4124514,51 23.4124514,51 23.4124514,51 C23.4124514,51 23.4338521,51 23.4552529,51 C23.4552529,51 23.4552529,51 23.4552529,51 C23.4552529,51 23.4552529,51 23.4552529,51 C23.4552529,51 23.4552529,51 23.4552529,51 L31.6731518,51 C31.6731518,51 31.6731518,51 31.6731518,51 C31.6731518,51 31.6731518,51 31.6731518,51 C31.6945525,51 31.6945525,51 31.7159533,51 C31.7159533,51 31.7159533,51 31.7159533,51 C31.7159533,51 31.7159533,51 31.7159533,51 C31.7159533,51 31.7159533,51 31.7159533,51 C31.7159533,51 31.7159533,51 31.7159533,51 L36.5097276,47.6785714 C36.5097276,47.6785714 36.5097276,47.6785714 36.5097276,47.6785714 C36.5097276,47.6785714 36.5097276,47.6785714 36.5097276,47.6785714 L38.8638132,45.75 C38.9280156,45.6857143 38.9494163,45.6214286 38.9066148,45.5785714 Z"/></g></g></g></svg>