<svg xmlns="http://www.w3.org/2000/svg" xmlns:xlink="http://www.w3.org/1999/xlink" width="300" height="300" viewBox="0 0 300 300"><defs><rect id="step-02-a" width="300" height="311"/><linearGradient id="step-02-c" x1="28.466%" x2="91.117%" y1="50%" y2="50%"><stop offset="0%" stop-color="#D3DCE6"/><stop offset="100%" stop-color="#D3DCE6" stop-opacity="0"/></linearGradient><filter id="step-02-d" width="125.6%" height="210.7%" x="-12.8%" y="-55.4%" filterUnits="objectBoundingBox"><feOffset in="SourceAlpha" result="shadowOffsetOuter1"/><feGaussianBlur in="shadowOffsetOuter1" result="shadowBlurOuter1" stdDeviation="8"/><feColorMatrix in="shadowBlurOuter1" result="shadowMatrixOuter1" values="0 0 0 0 0.105882353 0 0 0 0 0.266666667 0 0 0 0 0.474509804 0 0 0 0.15 0"/><feMerge><feMergeNode in="shadowMatrixOuter1"/><feMergeNode in="SourceGraphic"/></feMerge></filter><path id="step-02-e" d="M28,0 L214,-2.84217094e-14 C229.463973,-1.75276281e-14 242,12.536027 242,28 L242,28 C242,43.463973 229.463973,56 214,56 L28,56 C12.536027,56 1.8937905e-15,43.463973 0,28 L0,28 C-1.8937905e-15,12.536027 12.536027,2.84068575e-15 28,0 Z"/><path id="step-02-h" d="M127.336388,323 C126.230132,323 124.861224,322.240001 124.274374,321.295296 L92.3841903,269.958727 C89.5454208,265.059421 91.203445,258.810021 96.1642051,255.95617 C101.090619,253.122077 107.390286,254.804446 110.224314,259.695569 L118.466667,273.920678 L118.466667,220.368421 L118.466667,203.200882 C118.466667,197.56709 123.038474,193 128.766667,193 C134.4552,193 139.066667,197.626769 139.066667,203.200882 L139.066667,244.315789 L183.7,251.157895 C183.7,251.157895 194,254.578947 194,268.304136 L194,275.105263 L194,278.526316 L194,285.368421 C194,291.293606 191.472795,301.117587 188.586602,306.644445 C184.744684,314.001447 177.487558,322.24018 177.487558,322.24018 C177.12624,322.659817 176.388113,323 175.827693,323 L127.336388,323 Z"/><filter id="step-02-g" width="146.6%" height="136.9%" x="-23.3%" y="-18.5%" filterUnits="objectBoundingBox"><feOffset in="SourceAlpha" result="shadowOffsetOuter1"/><feGaussianBlur in="shadowOffsetOuter1" result="shadowBlurOuter1" stdDeviation="8"/><feColorMatrix in="shadowBlurOuter1" values="0 0 0 0 0.105882353 0 0 0 0 0.266666667 0 0 0 0 0.474509804 0 0 0 0.15 0"/></filter></defs><g fill="none" fill-rule="evenodd"><circle cx="223.5" cy="186" r="16" fill="#EDF3F7"/><circle cx="59.997" cy="1" r="68" fill="#EDF3F7"/><rect width="82" height="82" x="36.583" y="102.917" fill="#EDF3F7" transform="rotate(45 77.583 143.917)"/><rect width="49" height="49" x="177.749" y="18.249" fill="#EDF3F7" transform="rotate(22 202.249 42.749)"/><mask id="step-02-b" fill="#fff"><use xlink:href="#step-02-a"/></mask><g mask="url(#step-02-b)"><g><path fill="url(#step-02-c)" d="M152.521786,64.5572105 C152.171058,63.6530912 151.997683,62.6976766 152.000023,61.7436288 L152.000023,15.4276975 C152.000023,11.1628152 155.457394,7.70544499 159.722276,7.70544499 C163.987158,7.70544499 167.444528,11.1628152 167.444528,15.4276975 L167.444528,43.9103147 L190.091702,22.6330953 C208.835832,3.87957487 235.890612,-3.94604544 261.751745,1.90536052 C287.612878,7.75676648 308.663614,26.4668633 317.508868,51.4628281 C318.931616,55.4833997 316.825664,59.8960823 312.805091,61.3188305 C308.784518,62.7415787 304.371834,60.6356267 302.949085,56.6150551 C295.872882,36.6182832 279.032293,21.6502058 258.343387,16.969081 C237.65448,12.2879562 216.010657,18.5484525 200.841545,33.7197953 L179.217473,54.0389598 L206.055791,54.0389598 C210.320673,54.0389598 213.778043,57.49633 213.778043,61.7612122 C213.778043,66.0260945 210.320673,69.4834647 206.055791,69.4834647 L159.722276,69.4834647 C156.480421,69.4834647 153.705143,67.4858174 152.560249,64.6543327 L152.521786,64.5572105 Z" transform="translate(-47 89) matrix(-1 0 0 1 469.953 0)"/><g><g filter="url(#step-02-d)" transform="translate(-47 89) translate(0 81)"><mask id="step-02-f" fill="#fff"><use xlink:href="#step-02-e"/></mask><use fill="#6948A1" xlink:href="#step-02-e"/><g fill="#FF0D6A" mask="url(#step-02-f)"><rect width="248" height="56"/></g></g><path fill="#FFF" d="M106.607203,26.2645661 C106.53334,25.521314 105.947048,25.0873655 104.991438,25.0873655 C104.012745,25.0873655 103.472618,25.5351634 103.472618,26.1445378 C103.458769,26.8231593 104.146623,27.1278465 104.968355,27.3171219 L105.817786,27.5202467 C107.461251,27.8895645 108.647684,28.7251461 108.652301,30.2993634 C108.647684,32.0305407 107.290441,33.1338777 104.982205,33.1338777 C102.687818,33.1338777 101.224396,32.0767054 101.173615,30.0316079 L103.107917,30.0316079 C103.172547,30.9779849 103.920416,31.4580981 104.959122,31.4580981 C105.974746,31.4580981 106.630286,30.9872178 106.634902,30.2947469 C106.630286,29.6576736 106.057843,29.3622194 105.02837,29.1129298 L103.998896,28.8544074 C102.401596,28.4712401 101.418288,27.6725903 101.422904,26.2784155 C101.413671,24.5610876 102.932491,23.4162023 105.005287,23.4162023 C107.110399,23.4162023 108.495341,24.5795535 108.523039,26.2645661 L106.607203,26.2645661 Z M111.291086,33 L111.291086,23.5454636 L117.661818,23.5454636 L117.661818,25.1935444 L113.290019,25.1935444 L113.290019,27.4463831 L117.334049,27.4463831 L117.334049,29.094464 L113.290019,29.094464 L113.290019,31.3519192 L117.680284,31.3519192 L117.680284,33 L111.291086,33 Z M128.462527,23.5454636 L128.462527,33 L126.735966,33 L122.622689,27.0493665 L122.553442,27.0493665 L122.553442,33 L120.554509,33 L120.554509,23.5454636 L122.308769,23.5454636 L126.389731,29.4914806 L126.472827,29.4914806 L126.472827,23.5454636 L128.462527,23.5454636 Z M134.762176,33 L131.410617,33 L131.410617,23.5454636 L134.789875,23.5454636 C137.642855,23.5454636 139.387882,25.3181891 139.387882,28.2634988 C139.387882,31.2180415 137.642855,33 134.762176,33 Z M133.40955,31.2872886 L134.67908,31.2872886 C136.456422,31.2872886 137.393566,30.3732269 137.393566,28.2634988 C137.393566,26.1630037 136.456422,25.258175 134.683696,25.258175 L133.40955,25.258175 L133.40955,31.2872886 Z" transform="translate(-47 89) translate(0 81)"/></g></g></g><use fill="#000" filter="url(#step-02-g)" xlink:href="#step-02-h"/><use fill="#FFF" xlink:href="#step-02-h"/></g></svg>