<svg xmlns="http://www.w3.org/2000/svg" xmlns:xlink="http://www.w3.org/1999/xlink" width="280" height="304" viewBox="0 0 280 304"><defs><path id="step-04-b" d="M20,43 L151,43 C158.731986,43 165,49.2680135 165,57 L165,129 C165,136.731986 158.731986,143 151,143 L20,143 C12.2680135,143 6,136.731986 6,129 L6,57 C6,49.2680135 12.2680135,43 20,43 Z"/><filter id="step-04-a" width="117%" height="127%" x="-8.5%" y="-13.5%" filterUnits="objectBoundingBox"><feOffset in="SourceAlpha" result="shadowOffsetOuter1"/><feGaussianBlur in="shadowOffsetOuter1" result="shadowBlurOuter1" stdDeviation="4.5"/><feColorMatrix in="shadowBlurOuter1" values="0 0 0 0 0.105882353 0 0 0 0 0.266666667 0 0 0 0 0.474509804 0 0 0 0.15 0"/></filter><path id="step-04-d" d="M4,0 L140,0 C142.209139,-4.05812251e-16 144,1.790861 144,4 L144,83 C144,85.209139 142.209139,87 140,87 L4,87 C1.790861,87 2.705415e-16,85.209139 0,83 L0,4 C-2.705415e-16,1.790861 1.790861,4.05812251e-16 4,0 Z"/><filter id="step-04-c" width="133.3%" height="155.2%" x="-16.7%" y="-27.6%" filterUnits="objectBoundingBox"><feOffset in="SourceAlpha" result="shadowOffsetOuter1"/><feGaussianBlur in="shadowOffsetOuter1" result="shadowBlurOuter1" stdDeviation="8"/><feColorMatrix in="shadowBlurOuter1" values="0 0 0 0 0.105882353 0 0 0 0 0.266666667 0 0 0 0 0.474509804 0 0 0 0.2 0"/></filter><path id="step-04-f" d="M77.0041041,83 C76.9952903,83.1608528 76.9908257,83.3228631 76.9908257,83.4859155 C76.9908257,88.3164624 80.909361,92.2323944 85.7431193,92.2323944 C90.5768775,92.2323944 94.4954128,88.3164624 94.4954128,83.4859155 C94.4954128,83.3228631 94.4909482,83.1608528 94.4821345,83 L165,83 L165,142 C165,147.522847 160.522847,152 155,152 L16,152 C10.4771525,152 6,147.522847 6,142 L6,83 L77.0041041,83 Z"/><filter id="step-04-e" width="117%" height="139.1%" x="-8.5%" y="-19.6%" filterUnits="objectBoundingBox"><feOffset in="SourceAlpha" result="shadowOffsetOuter1"/><feGaussianBlur in="shadowOffsetOuter1" result="shadowBlurOuter1" stdDeviation="4.5"/><feColorMatrix in="shadowBlurOuter1" values="0 0 0 0 0.105882353 0 0 0 0 0.266666667 0 0 0 0 0.474509804 0 0 0 0.15 0"/></filter></defs><g fill="none" fill-rule="evenodd"><g fill="#EDF3F7" transform="translate(33 14)"><circle cx="16" cy="36.167" r="16"/><polygon points="116.74 19.941 212.882 20.083 213.024 116.225 116.882 116.083"/><rect width="55" height="55" x="29.281" y="73.281" transform="rotate(22 56.781 100.781)"/></g><g transform="translate(33 14) translate(13 91)"><use fill="#000" filter="url(#step-04-a)" xlink:href="#step-04-b"/><use fill="#FFF" xlink:href="#step-04-b"/><g transform="rotate(-10 142.906 12.503)"><use fill="#000" filter="url(#step-04-c)" xlink:href="#step-04-d"/><use fill="#FF0D6A" xlink:href="#step-04-d"/><path fill="#D12869" d="M0,72.5 L144,72.5 L144,83 C144,85.209139 142.209139,87 140,87 L4,87 C1.790861,87 1.25159629e-15,85.209139 0,83 L0,72.5 Z"/><ellipse cx="12.364" cy="12.325" fill="#D12869" rx="7.273" ry="7.25"/><path fill="#BD2A67" d="M29.1193133,15.6589014 C28.3068141,15.6589014 27.7585191,15.3094699 27.4573831,14.701516 L27.4261331,14.701516 C27.338065,15.0509475 26.7727246,15.6674242 25.8409073,15.6674242 C25.0113627,15.6674242 24.3664769,15.1929928 24.3664769,14.33788 C24.3664769,13.3577673 25.2073852,13.1304948 26.0397708,13.0339039 C26.7073838,12.9600404 27.1420425,12.9515176 27.1420425,12.6816315 C27.1420425,12.1134503 26.8693154,11.8378823 26.3238614,11.8378823 C25.7443165,11.8378823 25.4232941,12.1361775 25.2982942,12.4458363 L24.4999995,12.2640183 C24.7840902,11.4685645 25.5085213,11.150383 26.306816,11.150383 C27.0170426,11.150383 27.4687467,11.4458373 27.6477238,11.8378823 C27.9687462,11.39186 28.4431776,11.150383 29.0596543,11.150383 C30.0511306,11.150383 30.9943115,11.7668597 30.9943115,13.3435627 L30.9943115,13.5935625 L27.8977236,13.8037896 C27.9943144,14.548107 28.4431776,14.9571976 29.127836,14.9571976 C29.6193128,14.9571976 29.9801079,14.7469705 30.1335169,14.3350391 L30.9374934,14.4799253 C30.7443117,15.1901519 30.0710169,15.6589014 29.1193133,15.6589014 Z M27.8920417,13.1674265 L30.159085,13.0083358 C30.1562441,12.3407228 29.7272673,11.8520869 29.068177,11.8520869 C28.4147685,11.8520869 27.9374962,12.3378819 27.8920417,13.1674265 Z M26.0255663,14.9856066 C26.7329519,14.9856066 27.1448834,14.5140162 27.1448834,13.9969712 L27.1448834,13.4344717 C27.0227244,13.5566307 26.3693159,13.6304943 26.093748,13.6674261 C25.6022712,13.7327669 25.1988625,13.8946986 25.1988625,14.3492436 C25.1988625,14.7696977 25.5454531,14.9856066 26.0255663,14.9856066 Z M33.9801111,11.2072011 L33.9801111,11.8890187 L33.0852256,11.8890187 L33.0852256,14.2867436 C33.0823847,14.7782205 33.3323845,14.8691295 33.6079524,14.8691295 C33.7443159,14.8691295 33.8494295,14.8435613 33.9062476,14.8321977 L34.0596565,15.5339016 C33.9602248,15.5708333 33.7784068,15.6219696 33.5085207,15.6248106 C32.8380668,15.6361742 32.2329537,15.2526518 32.2357946,14.4628798 L32.2357946,11.8890187 L31.5965907,11.8890187 L31.5965907,11.2072011 L32.2357946,11.2072011 L32.2357946,10.1617476 L33.0852256,10.1617476 L33.0852256,11.2072011 L33.9801111,11.2072011 Z M36.8409067,15.6589014 C35.5511353,15.6589014 34.7642042,14.7725386 34.7642042,13.4174263 C34.7642042,12.0765185 35.5624989,11.150383 36.7784068,11.150383 C37.7698831,11.150383 38.7130641,11.7668597 38.7130641,13.3435627 L38.7130641,13.6446988 L35.6079534,13.6446988 C35.6306806,14.4856071 36.1221574,14.9571976 36.8465886,14.9571976 C37.3323836,14.9571976 37.6988605,14.7469705 37.8551103,14.3350391 L38.6590868,14.4799253 C38.4659052,15.1901519 37.7926104,15.6589014 36.8409067,15.6589014 Z M35.6107943,13.0083358 L37.8778376,13.0083358 C37.8778376,12.3407228 37.4460198,11.8520869 36.7869295,11.8520869 C36.0937484,11.8520869 35.6477261,12.3890182 35.6107943,13.0083358 Z M39.6647722,15.5708333 L39.6647722,11.2072011 L40.4857941,11.2072011 L40.4857941,11.9003823 L40.5312486,11.9003823 C40.6903394,11.4316327 41.1221572,11.1418603 41.6392021,11.1418603 C41.8778383,11.1418603 42.0653381,11.2043602 42.2102243,11.300951 L41.9374973,12.0111776 C41.8352247,11.9600413 41.7073839,11.9259504 41.5426113,11.9259504 C40.9545437,11.9259504 40.5142032,12.3378819 40.5142032,12.9060631 L40.5142032,15.5708333 L39.6647722,15.5708333 Z M43.7017032,12.9799267 L43.7017032,15.5708333 L42.8522722,15.5708333 L42.8522722,11.2072011 L43.6676123,11.2072011 L43.6676123,11.9174277 L43.7215895,11.9174277 C43.9232939,11.45436 44.3522708,11.150383 45.0085201,11.150383 C45.9005647,11.150383 46.4943142,11.7157234 46.4943142,12.7952678 L46.4943142,15.5708333 L45.6448832,15.5708333 L45.6448832,12.8975404 C45.6448832,12.2640183 45.2954517,11.8861778 44.7187477,11.8861778 C44.1278391,11.8861778 43.7017032,12.2839046 43.7017032,12.9799267 Z M47.6306813,15.5708333 L47.6306813,11.2072011 L48.4801123,11.2072011 L48.4801123,15.5708333 L47.6306813,15.5708333 Z M48.0596581,10.5566336 C47.7670448,10.5566336 47.5227268,10.332202 47.5227268,10.0509522 C47.5227268,9.7697025 47.7670448,9.54242999 48.0596581,9.54242999 C48.3494306,9.54242999 48.5965894,9.7697025 48.5965894,10.0509522 C48.5965894,10.332202 48.3494306,10.5566336 48.0596581,10.5566336 Z M51.6590884,11.2072011 L51.6590884,11.8890187 L50.7642029,11.8890187 L50.7642029,14.2867436 C50.761362,14.7782205 51.0113618,14.8691295 51.2869297,14.8691295 C51.4232932,14.8691295 51.5284067,14.8435613 51.5852249,14.8321977 L51.7386338,15.5339016 C51.6392021,15.5708333 51.4573841,15.6219696 51.187498,15.6248106 C50.5170441,15.6361742 49.911931,15.2526518 49.9147719,14.4628798 L49.9147719,11.8890187 L49.275568,11.8890187 L49.275568,11.2072011 L49.9147719,11.2072011 L49.9147719,10.1617476 L50.7642029,10.1617476 L50.7642029,11.2072011 L51.6590884,11.2072011 Z M53.1392035,17.2668544 C52.8749992,17.2668544 52.6619312,17.2100363 52.5710222,17.1674227 L52.7755675,16.4628779 C53.2443171,16.5878778 53.5369304,16.5339006 53.761362,15.9714011 L53.8977255,15.6361742 L52.2897725,11.2072011 L53.1988626,11.2072011 L54.3039751,14.5935615 L54.3494296,14.5935615 L55.4545422,11.2072011 L56.3664732,11.2072011 L54.5482931,16.2071964 C54.3011342,16.886173 53.8437483,17.2668544 53.1392035,17.2668544 Z M60.5539755,15.6674242 C59.7244309,15.6674242 59.0795451,15.1958337 59.0795451,14.33788 C59.0795451,13.3464036 59.9261352,13.1304948 60.752839,13.0339039 C60.8267025,13.0253812 60.8977252,13.0168585 60.9659069,13.0111767 C61.5965882,12.940154 61.8579515,12.911745 61.8551106,12.6276543 C61.8551106,12.1276548 61.5795427,11.8378823 61.025566,11.8378823 C60.4545438,11.8378823 60.1363623,12.1361775 60.0113624,12.4458363 L59.2130677,12.2640183 C59.4971583,11.4685645 60.2215895,11.150383 61.0198842,11.150383 C61.7045426,11.150383 62.7073826,11.4032237 62.7073826,12.6731088 L62.7073826,15.5708333 L61.8778379,15.5708333 L61.8778379,14.974243 L61.843747,14.974243 C61.6818154,15.3009472 61.2755657,15.6674242 60.5539755,15.6674242 Z M60.7386344,14.9856066 C61.4460201,14.9856066 61.8579515,14.5140162 61.8579515,13.9969712 L61.8579515,13.4344717 C61.7357926,13.5566307 61.0823841,13.6304943 60.8068162,13.6674261 C60.3153394,13.7327669 59.9119307,13.8946986 59.9119307,14.3492436 C59.9119307,14.7696977 60.2585213,14.9856066 60.7386344,14.9856066 Z M65.6818159,15.6589014 C64.4147716,15.6589014 63.6477269,14.7242432 63.6477269,13.4089036 C63.6477269,12.0765185 64.4431807,11.150383 65.6704523,11.150383 C66.6647695,11.150383 67.3806779,11.7356097 67.4744278,12.6162907 L66.647724,12.6162907 C66.556815,12.2072002 66.2272699,11.8662914 65.6846568,11.8662914 C64.9744302,11.8662914 64.5028397,12.454359 64.5028397,13.3890172 C64.5028397,14.3407209 64.9659075,14.9401521 65.6846568,14.9401521 C66.1732927,14.9401521 66.5397696,14.6617433 66.647724,14.1901528 L67.4744278,14.1901528 C67.3806779,15.0395838 66.7130649,15.6589014 65.6818159,15.6589014 Z M70.2301113,15.6589014 C68.9630671,15.6589014 68.1960224,14.7242432 68.1960224,13.4089036 C68.1960224,12.0765185 68.9914762,11.150383 70.2187477,11.150383 C71.2130649,11.150383 71.9289733,11.7356097 72.0227233,12.6162907 L71.1960195,12.6162907 C71.1051105,12.2072002 70.7755654,11.8662914 70.2329522,11.8662914 C69.5227256,11.8662914 69.0511352,12.454359 69.0511352,13.3890172 C69.0511352,14.3407209 69.5142029,14.9401521 70.2329522,14.9401521 C70.7215881,14.9401521 71.0880651,14.6617433 71.1960195,14.1901528 L72.0227233,14.1901528 C71.9289733,15.0395838 71.2613603,15.6589014 70.2301113,15.6589014 Z M74.7784068,15.6589014 C73.5482943,15.6589014 72.7443178,14.7583341 72.7443178,13.4089036 C72.7443178,12.0509503 73.5482943,11.150383 74.7784068,11.150383 C76.0056783,11.150383 76.8124958,12.0509503 76.8124958,13.4089036 C76.8124958,14.7583341 76.0056783,15.6589014 74.7784068,15.6589014 Z M74.7784068,14.9458339 C75.5767015,14.9458339 75.954542,14.2441301 75.954542,13.4060627 C75.954542,12.5708362 75.5767015,11.8606096 74.7784068,11.8606096 C73.9772712,11.8606096 73.5994306,12.5708362 73.5994306,13.4060627 C73.5994306,14.2441301 73.9772712,14.9458339 74.7784068,14.9458339 Z M80.525565,13.761176 L80.525565,11.2072011 L81.3778369,11.2072011 L81.3778369,15.5708333 L80.5426104,15.5708333 L80.5426104,14.8151522 L80.4971559,14.8151522 C80.2954516,15.2810609 79.8494293,15.6276515 79.1931799,15.6276515 C78.3551125,15.6276515 77.7613631,15.065152 77.7613631,13.9827667 L77.7613631,11.2072011 L78.6107941,11.2072011 L78.6107941,13.880494 C78.6107941,14.4742435 78.9744301,14.8549249 79.4999978,14.8549249 C79.9772701,14.8549249 80.5284059,14.5026525 80.525565,13.761176 Z M83.3664759,12.9799267 L83.3664759,15.5708333 L82.5170449,15.5708333 L82.5170449,11.2072011 L83.332385,11.2072011 L83.332385,11.9174277 L83.3863623,11.9174277 C83.5880666,11.45436 84.0170435,11.150383 84.6732929,11.150383 C85.5653375,11.150383 86.1590869,11.7157234 86.1590869,12.7952678 L86.1590869,15.5708333 L85.3096559,15.5708333 L85.3096559,12.8975404 C85.3096559,12.2640183 84.9602244,11.8861778 84.3835204,11.8861778 C83.7926119,11.8861778 83.3664759,12.2839046 83.3664759,12.9799267 Z M89.3323839,11.2072011 L89.3323839,11.8890187 L88.4374984,11.8890187 L88.4374984,14.2867436 C88.4346575,14.7782205 88.6846572,14.8691295 88.9602251,14.8691295 C89.0965886,14.8691295 89.2017022,14.8435613 89.2585203,14.8321977 L89.4119293,15.5339016 C89.3124975,15.5708333 89.1306795,15.6219696 88.8607934,15.6248106 C88.1903395,15.6361742 87.5852265,15.2526518 87.5880674,14.4628798 L87.5880674,11.8890187 L86.9488634,11.8890187 L86.9488634,11.2072011 L87.5880674,11.2072011 L87.5880674,10.1617476 L88.4374984,10.1617476 L88.4374984,11.2072011 L89.3323839,11.2072011 Z"/></g><use fill="#000" filter="url(#step-04-e)" xlink:href="#step-04-f"/><use fill="#FFF" xlink:href="#step-04-f"/><g fill="#D3DCE6"><path d="M19.70163,0 C17.1985301,0 15.4828242,1.62950889 14,3.64841365 L14.8786904,4.98573343 C16.2370966,3.04968827 17.6807331,1.52642422 19.70163,1.52642422 C22.0229255,1.52642422 23.9531933,3.27955887 24.3096437,5.56657226 L18.5471697,5.56657226 L18.5471697,7.09305968 L25.8013852,7.09305968 C25.830685,6.8427744 25.8461538,6.58812808 25.8461538,6.32981597 C25.8461538,2.83953712 23.0897291,0 19.70163,0" transform="translate(16.043 128.538)"/><path d="M13.3086386,5.59713549 C11.2214132,2.36269339 9.25125586,0 6.19543552,0 C2.77923621,0 0,2.81479478 0,6.27466104 C0,9.73446466 2.77923621,12.5492594 6.19543552,12.5492594 C8.71478541,12.5492594 10.4430998,10.9395254 11.9363605,8.94309927 L11.0568817,7.60891148 C9.68760066,9.52720976 8.23232287,11.0360731 6.19543552,11.0360731 C3.60036446,11.0360731 1.4891627,8.90011957 1.4891627,6.27466104 C1.4891627,3.64920252 3.60036446,1.5131237 6.19543552,1.5131237 C8.68726156,1.5131237 10.2427873,3.60534568 12.4141134,6.94679848 C14.5854395,10.2882513 16.4760834,12.5492594 19.5319649,12.5492594 C22.1581685,12.5492594 24.4076624,10.8855815 25.3076923,8.54437793 L23.6681882,8.54437793 C22.8699353,10.0273657 21.3152047,11.0360731 19.5319649,11.0360731 C17.0400777,11.0360731 15.395864,8.83157759 13.3086386,5.59713549 Z" transform="translate(16.043 128.538)"/></g></g></g></svg>