<?xml version="1.0" encoding="UTF-8"?>
<svg width="241px" height="244px" viewBox="0 0 241 244" version="1.1" xmlns="http://www.w3.org/2000/svg" xmlns:xlink="http://www.w3.org/1999/xlink">
    <!-- Generator: Sketch 52.3 (67297) - http://www.bohemiancoding.com/sketch -->
    <title>step-4</title>
    <desc>Created with Sketch.</desc>
    <defs>
        <path d="M21,44 L152,44 C159.731986,44 166,50.2680135 166,58 L166,130 C166,137.731986 159.731986,144 152,144 L21,144 C13.2680135,144 7,137.731986 7,130 L7,58 C7,50.2680135 13.2680135,44 21,44 Z" id="path-1"></path>
        <filter x="-8.5%" y="-13.5%" width="117.0%" height="127.0%" filterUnits="objectBoundingBox" id="filter-2">
            <feOffset dx="0" dy="0" in="SourceAlpha" result="shadowOffsetOuter1"></feOffset>
            <feGaussianBlur stdDeviation="4.5" in="shadowOffsetOuter1" result="shadowBlurOuter1"></feGaussianBlur>
            <feColorMatrix values="0 0 0 0 0.105882353   0 0 0 0 0.266666667   0 0 0 0 0.474509804  0 0 0 0.15 0" type="matrix" in="shadowBlurOuter1"></feColorMatrix>
        </filter>
        <path d="M4.74413604,0.214695355 L140.744136,0.214695355 C142.953275,0.214695355 144.744136,2.00555636 144.744136,4.21469535 L144.744136,83.2146954 C144.744136,85.4238344 142.953275,87.2146954 140.744136,87.2146954 L4.74413604,87.2146954 C2.53499704,87.2146954 0.74413604,85.4238344 0.74413604,83.2146954 L0.74413604,4.21469535 C0.74413604,2.00555636 2.53499704,0.214695355 4.74413604,0.214695355 Z" id="path-3"></path>
        <filter x="-16.7%" y="-27.6%" width="133.3%" height="155.2%" filterUnits="objectBoundingBox" id="filter-4">
            <feOffset dx="0" dy="0" in="SourceAlpha" result="shadowOffsetOuter1"></feOffset>
            <feGaussianBlur stdDeviation="8" in="shadowOffsetOuter1" result="shadowBlurOuter1"></feGaussianBlur>
            <feColorMatrix values="0 0 0 0 0.105882353   0 0 0 0 0.266666667   0 0 0 0 0.474509804  0 0 0 0.2 0" type="matrix" in="shadowBlurOuter1"></feColorMatrix>
        </filter>
        <path d="M78.0041041,84 C77.9952903,84.1608528 77.9908257,84.3228631 77.9908257,84.4859155 C77.9908257,89.3164624 81.909361,93.2323944 86.7431193,93.2323944 C91.5768775,93.2323944 95.4954128,89.3164624 95.4954128,84.4859155 C95.4954128,84.3228631 95.4909482,84.1608528 95.4821345,84 L166,84 L166,143 C166,148.522847 161.522847,153 156,153 L17,153 C11.4771525,153 7,148.522847 7,143 L7,84 L78.0041041,84 Z" id="path-5"></path>
        <filter x="-8.5%" y="-19.6%" width="117.0%" height="139.1%" filterUnits="objectBoundingBox" id="filter-6">
            <feOffset dx="0" dy="0" in="SourceAlpha" result="shadowOffsetOuter1"></feOffset>
            <feGaussianBlur stdDeviation="4.5" in="shadowOffsetOuter1" result="shadowBlurOuter1"></feGaussianBlur>
            <feColorMatrix values="0 0 0 0 0.105882353   0 0 0 0 0.266666667   0 0 0 0 0.474509804  0 0 0 0.15 0" type="matrix" in="shadowBlurOuter1"></feColorMatrix>
        </filter>
    </defs>
    <g id="Landing-Page" stroke="none" stroke-width="1" fill="none" fill-rule="evenodd">
        <g id="00.0-Landing" transform="translate(-240.000000, -2997.000000)">
            <g id="step-4" transform="translate(245.000000, 2997.000000)">
                <g id="Group-22" fill="#EDF3F7">
                    <circle id="Oval" cx="16" cy="31.1665222" r="16"></circle>
                    <polygon id="Rectangle-4" points="130.901638 17.890873 217.294026 17.8832611 217.286414 104.275649 130.894026 104.283261"></polygon>
                    <rect id="Rectangle-Copy" transform="translate(66.781333, 85.781333) rotate(22.000000) translate(-66.781333, -85.781333) " x="39.2813328" y="58.2813328" width="55" height="55"></rect>
                </g>
                <g id="Group-11" transform="translate(9.000000, 82.000000)">
                    <g id="Group-3">
                        <g id="Rectangle-10">
                            <use fill="black" fill-opacity="1" filter="url(#filter-2)" xlink:href="#path-1"></use>
                            <use fill="#FFFFFF" fill-rule="evenodd" xlink:href="#path-1"></use>
                        </g>
                        <g id="Group-16" transform="translate(79.268970, 56.665170) rotate(-10.000000) translate(-79.268970, -56.665170) translate(6.768970, 12.665170)">
                            <g id="Rectangle-3-Copy-16">
                                <use fill="black" fill-opacity="1" filter="url(#filter-4)" xlink:href="#path-3"></use>
                                <use fill="#FF0D6A" fill-rule="evenodd" xlink:href="#path-3"></use>
                            </g>
                            <path d="M0.74413604,72.7146954 L144.744136,72.7146954 L144.744136,83.2146954 C144.744136,85.4238344 142.953275,87.2146954 140.744136,87.2146954 L4.74413604,87.2146954 C2.53499704,87.2146954 0.74413604,85.4238344 0.74413604,83.2146954 L0.74413604,72.7146954 Z" id="Rectangle-3-Copy-25" fill="#D12869"></path>
                            <ellipse id="Oval-9" fill="#D12869" cx="13.1077724" cy="12.5396954" rx="7.27272727" ry="7.25"></ellipse>
                            <path d="M25.2242497,12.4900741 C25.3170532,12.2249213 25.4543624,12.0094878 25.6361815,11.8437673 C25.8180006,11.6780468 26.0286992,11.5568359 26.2682838,11.480131 C26.5078683,11.403426 26.7583393,11.3650741 27.0197042,11.3650741 C27.3454634,11.3650741 27.6215023,11.4185774 27.8478292,11.5255855 C28.0741561,11.6325936 28.2469764,11.7713233 28.3662951,11.9417787 C28.5272808,11.7599596 28.7209342,11.618389 28.947261,11.5170628 C29.1735879,11.4157365 29.4306876,11.3650741 29.7185679,11.3650741 C30.0537968,11.3650741 30.3667672,11.4379901 30.6574883,11.5838241 C30.9482095,11.7296582 31.1830556,11.9597695 31.3620338,12.2741651 C31.5410119,12.5885606 31.6304997,12.9995413 31.6304997,13.5071196 L31.6304997,13.7883696 L28.5850451,14.0497332 C28.6418636,14.3963259 28.7711237,14.6628952 28.9728292,14.8494491 C29.1745348,15.0360031 29.4411041,15.1292787 29.7725451,15.1292787 C30.037698,15.1292787 30.251711,15.0710406 30.4145906,14.9545628 C30.5774702,14.8380849 30.6948933,14.681363 30.7668633,14.4843923 L31.5736815,14.7059832 C31.5130751,14.9143176 31.4046482,15.1074975 31.2483974,15.2855287 C31.0921466,15.4635599 30.8904441,15.6060774 30.6432838,15.7130855 C30.3961234,15.8200936 30.1077741,15.8735969 29.7782269,15.8735969 C29.3861795,15.8735969 29.0585313,15.7949992 28.7952724,15.6378014 C28.5320135,15.4806037 28.3246292,15.2609089 28.1731133,14.9787105 L28.1532269,14.9787105 C28.1342875,15.0696201 28.0670533,15.1860962 27.9515224,15.3281423 C27.8359915,15.4701885 27.6702735,15.5975546 27.4543633,15.7102446 C27.2384531,15.8229346 26.9685695,15.8792787 26.6447042,15.8792787 C26.3719756,15.8792787 26.1196107,15.8300368 25.8876019,15.7315514 C25.6555932,15.6330661 25.469042,15.4848668 25.3279429,15.2869491 C25.1868437,15.0890315 25.1162951,14.8432953 25.1162951,14.5497332 C25.1162951,14.2448075 25.1934724,14.0014387 25.3478292,13.8196196 C25.5021861,13.6378005 25.7100438,13.5019117 25.9714088,13.4119491 C26.2327737,13.3219866 26.5215966,13.2599607 26.837886,13.2258696 C27.0064475,13.2050362 27.1641164,13.1875174 27.3108974,13.1733128 C27.4576784,13.1591082 27.5765219,13.1335402 27.6674315,13.0966082 C27.758341,13.0596762 27.8037951,12.9976503 27.8037951,12.9105287 L27.8037951,12.8735969 C27.8037951,12.5913985 27.7285118,12.3915899 27.5779429,12.2741651 C27.4273739,12.1567402 27.2394023,12.0980287 27.0140224,12.0980287 C26.7450817,12.0980287 26.5315421,12.1595811 26.3733974,12.2826878 C26.2152527,12.4057945 26.1049318,12.5459446 26.0424315,12.7031423 L25.2242497,12.4900741 Z M29.7157269,12.1065514 C29.3937556,12.1065514 29.1300272,12.2192397 28.9245338,12.4446196 C28.7190403,12.6699995 28.5983029,12.9862842 28.5623179,13.3934832 L30.7782269,13.2116651 C30.7782269,12.8953756 30.6835309,12.6321206 30.494136,12.4218923 C30.3047412,12.211664 30.0452741,12.1065514 29.7157269,12.1065514 Z M27.8037951,14.2628014 L27.8037951,13.6690514 C27.771598,13.7069304 27.6958412,13.740074 27.5765224,13.7684832 C27.4572036,13.7968925 27.3298375,13.820093 27.1944201,13.8380855 C27.0590028,13.856078 26.9505758,13.8707559 26.869136,13.8821196 C26.6077711,13.9143167 26.3937581,13.979657 26.2270906,14.0781423 C26.0604231,14.1766277 25.9770906,14.3385579 25.9770906,14.5639378 C25.9770906,14.7609085 26.049533,14.9110017 26.1944201,15.0142219 C26.3393072,15.1174421 26.5253849,15.1690514 26.7526588,15.1690514 C27.076524,15.1690514 27.3326768,15.0767228 27.5211247,14.8920628 C27.7095726,14.7074028 27.8037951,14.4976511 27.8037951,14.2628014 Z M34.5140224,11.4218923 L34.5140224,12.1378014 L33.6617497,12.1378014 L33.6617497,14.495756 C33.6617497,14.7419693 33.7138325,14.8982178 33.8179997,14.964506 C33.9221669,15.0307942 34.0414839,15.0639378 34.1759542,15.0639378 C34.2384545,15.0639378 34.2943252,15.0601499 34.3435679,15.0525741 C34.3928105,15.0449983 34.4325829,15.0374227 34.462886,15.0298469 L34.619136,15.7485969 C34.5755752,15.7656424 34.5007654,15.7855286 34.3947042,15.808256 C34.2886431,15.8309833 34.1551217,15.8423469 33.994136,15.8423469 C33.7914835,15.8423469 33.5978301,15.7978397 33.4131701,15.7088241 C33.2285101,15.6198085 33.0779434,15.4881811 32.9614656,15.3139378 C32.8449877,15.1396945 32.7867497,14.9247345 32.7867497,14.6690514 L32.7867497,12.1378014 L32.181636,12.1378014 L32.181636,11.4218923 L32.7867497,11.4218923 L32.7867497,10.4900741 L33.6617497,10.4900741 L33.6617497,11.4218923 L34.5140224,11.4218923 Z M37.3151588,15.8735969 C36.8890203,15.8735969 36.5211262,15.7822152 36.2114656,15.5994491 C35.9018049,15.4166831 35.6636444,15.1586364 35.4969769,14.8253014 C35.3303094,14.4919664 35.2469769,14.0999249 35.2469769,13.6491651 C35.2469769,13.2021931 35.3284155,12.8073107 35.4912951,12.464506 C35.6541747,12.1217012 35.88618,11.8527645 36.1873179,11.6576878 C36.4884557,11.462611 36.8454597,11.3650741 37.2583406,11.3650741 C37.5935695,11.3650741 37.9065399,11.4379901 38.197261,11.5838241 C38.4879822,11.7296582 38.7228283,11.9597695 38.9018065,12.2741651 C39.0807847,12.5885606 39.1702724,12.9995413 39.1702724,13.5071196 L39.1702724,13.8735969 L36.1049315,13.8735969 C36.1390226,14.277008 36.2592865,14.5871375 36.4657269,14.8039946 C36.6721674,15.0208517 36.9543615,15.1292787 37.3123179,15.1292787 C37.5774707,15.1292787 37.7914837,15.0710406 37.9543633,14.9545628 C38.1172429,14.8380849 38.234666,14.681363 38.306636,14.4843923 L39.1134542,14.7059832 C39.0528479,14.9143176 38.9448944,15.1074975 38.7895906,15.2855287 C38.6342868,15.4635599 38.4335312,15.6060774 38.1873179,15.7130855 C37.9411045,15.8200936 37.6503877,15.8735969 37.3151588,15.8735969 Z M37.2554997,12.1065514 C36.9581497,12.1065514 36.7100461,12.2031414 36.5111815,12.3963241 C36.3123169,12.5895069 36.1835303,12.8612845 36.1248179,13.2116651 L38.3179997,13.2116651 C38.3179997,12.8953756 38.2233037,12.6321206 38.0339088,12.4218923 C37.8445139,12.211664 37.5850468,12.1065514 37.2554997,12.1065514 Z M42.6560679,11.5099605 L42.3748179,12.2912105 C42.3426207,12.274165 42.2929053,12.2547523 42.2256701,12.2329719 C42.1584349,12.2111915 42.0784168,12.2003014 41.9856133,12.2003014 C41.7772789,12.2003014 41.5973565,12.2556986 41.4458406,12.3664946 C41.2943247,12.4772906 41.1769016,12.6183877 41.0935679,12.7897901 C41.0102341,12.9611924 40.9676209,13.1368535 40.9657269,13.3167787 L40.9657269,15.7855287 L40.0907269,15.7855287 L40.0907269,11.4218923 L40.9543633,11.4218923 L40.9543633,12.1093923 L41.0054997,12.1093923 C41.068,11.8934822 41.2015214,11.7140332 41.4060679,11.5710401 C41.6106143,11.4280469 41.8303091,11.3565514 42.0651588,11.3565514 C42.1787957,11.3565514 42.2886431,11.3721763 42.3947042,11.4034264 C42.5007654,11.4346766 42.5878857,11.4701876 42.6560679,11.5099605 Z M44.1560679,13.2883696 L44.1560679,15.7855287 L43.2810679,15.7855287 L43.2810679,11.4218923 L44.1219769,11.4218923 L44.1219769,12.0724605 L44.1674315,12.0724605 C44.2772805,11.869808 44.4377903,11.7012491 44.6489656,11.5667787 C44.8601409,11.4323083 45.1181875,11.3650741 45.4231133,11.3650741 C45.6863722,11.3650741 45.9259531,11.4228387 46.1418633,11.5383696 C46.3577735,11.6539005 46.5296468,11.8338229 46.6574883,12.0781423 C46.7853299,12.3224617 46.8492497,12.6387464 46.8492497,13.027006 L46.8492497,15.7855287 L45.9770906,15.7855287 L45.9770906,13.0724605 C45.9770906,12.7807924 45.8970724,12.5521015 45.7370338,12.386381 C45.5769951,12.2206604 45.3738721,12.1378014 45.1276588,12.1378014 C44.9628852,12.1378014 44.8061633,12.1813616 44.6574883,12.2684832 C44.5088133,12.3556049 44.3880759,12.4843915 44.2952724,12.6548469 C44.2024689,12.8253023 44.1560679,13.0364744 44.1560679,13.2883696 Z M48.3947042,10.9218923 C48.2337186,10.9218923 48.1020911,10.8707565 47.9998179,10.7684832 C47.8975446,10.66621 47.8464088,10.5449991 47.8464088,10.4048469 C47.8464088,10.2722704 47.8975446,10.1529535 47.9998179,10.0468923 C48.1020911,9.94083119 48.2337186,9.88780142 48.3947042,9.88780142 C48.5556899,9.88780142 48.6873173,9.94083119 48.7895906,10.0468923 C48.8918638,10.1529535 48.9429997,10.2722704 48.9429997,10.4048469 C48.9429997,10.5449991 48.8918638,10.66621 48.7895906,10.7684832 C48.6873173,10.8707565 48.5556899,10.9218923 48.3947042,10.9218923 Z M48.8350451,11.4218923 L48.8350451,15.7855287 L47.9600451,15.7855287 L47.9600451,11.4218923 L48.8350451,11.4218923 Z M51.9145906,11.4218923 L51.9145906,12.1378014 L51.0623179,12.1378014 L51.0623179,14.495756 C51.0623179,14.7419693 51.1144007,14.8982178 51.2185679,14.964506 C51.322735,15.0307942 51.442052,15.0639378 51.5765224,15.0639378 C51.6390227,15.0639378 51.6948934,15.0601499 51.744136,15.0525741 C51.7933787,15.0449983 51.833151,15.0374227 51.8634542,15.0298469 L52.0197042,15.7485969 C51.9761434,15.7656424 51.9013335,15.7855286 51.7952724,15.808256 C51.6892113,15.8309833 51.5556899,15.8423469 51.3947042,15.8423469 C51.1920517,15.8423469 50.9983983,15.7978397 50.8137383,15.7088241 C50.6290783,15.6198085 50.4785116,15.4881811 50.3620338,15.3139378 C50.2455559,15.1396945 50.1873179,14.9247345 50.1873179,14.6690514 L50.1873179,12.1378014 L49.5822042,12.1378014 L49.5822042,11.4218923 L50.1873179,11.4218923 L50.1873179,10.4900741 L51.0623179,10.4900741 L51.0623179,11.4218923 L51.9145906,11.4218923 Z M54.0026588,16.1008696 L54.1219769,15.7826878 L52.5168633,11.4218923 L53.4401588,11.4218923 L54.5282269,14.6150741 L54.5793633,14.6150741 L55.6674315,11.4218923 L56.5907269,11.4218923 L54.7299315,16.464506 C54.6200825,16.7618559 54.4543644,17.0056982 54.2327724,17.1960401 C54.0111804,17.3863819 53.7223575,17.4815514 53.3662951,17.4815514 C53.2488703,17.4815514 53.1432842,17.4720818 53.0495338,17.4531423 C52.9557833,17.4342028 52.8805,17.4124228 52.8236815,17.3878014 L53.0282269,16.6662105 C53.2820161,16.7306048 53.4799308,16.72587 53.6219769,16.652006 C53.7640231,16.578142 53.8909158,16.3944317 54.0026588,16.1008696 Z M62.1276588,15.7855287 L62.1276588,15.2429151 L62.087886,15.2429151 C62.0386434,15.3357185 61.96336,15.4313615 61.8620338,15.5298469 C61.7607075,15.6283322 61.6286066,15.7111912 61.4657269,15.7784264 C61.3028473,15.8456616 61.1058796,15.8792787 60.8748179,15.8792787 C60.6058771,15.8792787 60.3615614,15.8276694 60.1418633,15.7244491 C59.9221652,15.6212289 59.7469776,15.4701888 59.6162951,15.2713241 C59.4856127,15.0724595 59.4202724,14.8319316 59.4202724,14.5497332 C59.4202724,14.2448075 59.4974497,14.0014387 59.6518065,13.8196196 C59.8061633,13.6378005 60.0140211,13.5019117 60.275386,13.4119491 C60.536751,13.3219866 60.8255739,13.2599607 61.1418633,13.2258696 C61.3085308,13.2050362 61.4652527,13.1875174 61.6120338,13.1733128 C61.7588148,13.1591082 61.8781318,13.1335402 61.9699883,13.0966082 C62.0618448,13.0596762 62.1077724,12.9976503 62.1077724,12.9105287 L62.1077724,12.8735969 C62.1077724,12.5913985 62.0353299,12.3892225 61.8904429,12.2670628 C61.7455558,12.1449031 61.5585311,12.0838241 61.3293633,12.0838241 C61.0604226,12.0838241 60.8445156,12.1449031 60.681636,12.2670628 C60.5187564,12.3892225 60.4089091,12.5270052 60.3520906,12.6804151 L59.525386,12.4900741 C59.6162956,12.2249213 59.7531313,12.0094878 59.9358974,11.8437673 C60.1186635,11.6780468 60.3298356,11.5568359 60.5694201,11.480131 C60.8090047,11.403426 61.0604226,11.3650741 61.3236815,11.3650741 C61.4998187,11.3650741 61.6840025,11.3859073 61.8762383,11.4275741 C62.0684741,11.469241 62.24887,11.5445244 62.4174315,11.6534264 C62.5859929,11.7623285 62.7228287,11.9162095 62.8279429,12.1150741 C62.933057,12.3139388 62.9856133,12.570565 62.9856133,12.8849605 L62.9856133,15.7855287 L62.1276588,15.7855287 Z M62.1077724,14.2628014 L62.1077724,13.6690514 C62.0755753,13.7069304 61.9998185,13.740074 61.8804997,13.7684832 C61.7611809,13.7968925 61.6338147,13.820093 61.4983974,13.8380855 C61.3629801,13.856078 61.2545531,13.8707559 61.1731133,13.8821196 C60.9117484,13.9143167 60.6972619,13.979657 60.5296474,14.0781423 C60.3620329,14.1766277 60.2782269,14.3385579 60.2782269,14.5639378 C60.2782269,14.7609085 60.3506694,14.9110017 60.4955565,15.0142219 C60.6404436,15.1174421 60.8265213,15.1690514 61.0537951,15.1690514 C61.3795543,15.1690514 61.636654,15.0767228 61.8251019,14.8920628 C62.0135499,14.7074028 62.1077724,14.4976511 62.1077724,14.2628014 Z M67.6844769,12.7684832 L66.8464088,12.8423469 C66.7952721,12.6396943 66.6920535,12.4664006 66.5367497,12.3224605 C66.3814459,12.1785204 66.1693268,12.1065514 65.900386,12.1065514 C65.5386418,12.1065514 65.2564477,12.2429137 65.0537951,12.5156423 C64.8511426,12.788371 64.7498179,13.1510567 64.7498179,13.6037105 C64.7498179,14.0639401 64.8501956,14.4332546 65.0509542,14.7116651 C65.2517128,14.9900755 65.5348539,15.1292787 65.900386,15.1292787 C66.1428115,15.1292787 66.3449875,15.0663058 66.5069201,14.9403582 C66.6688528,14.8144106 66.7791736,14.6415904 66.837886,14.4218923 L67.681636,14.4900741 C67.609666,14.8915913 67.4160126,15.2225539 67.1006701,15.4829719 C66.7853276,15.7433898 66.3852369,15.8735969 65.900386,15.8735969 C65.4875052,15.8735969 65.1314481,15.7770069 64.8322042,15.5838241 C64.5329603,15.3906414 64.3023755,15.1231251 64.1404429,14.7812673 C63.9785102,14.4394096 63.8975451,14.0468945 63.8975451,13.6037105 C63.8975451,13.1681023 63.9794572,12.7817425 64.1432838,12.4446196 C64.3071103,12.1074967 64.5381686,11.8432948 64.8364656,11.652006 C65.1347625,11.4607171 65.4865583,11.3650741 65.8918633,11.3650741 C66.3672445,11.3650741 66.7678087,11.4929138 67.0935679,11.7485969 C67.4193271,12.00428 67.6162948,12.3442387 67.6844769,12.7684832 Z M72.1645906,12.7684832 L71.3265224,12.8423469 C71.2753858,12.6396943 71.1721671,12.4664006 71.0168633,12.3224605 C70.8615595,12.1785204 70.6494404,12.1065514 70.3804997,12.1065514 C70.0187554,12.1065514 69.7365613,12.2429137 69.5339088,12.5156423 C69.3312562,12.788371 69.2299315,13.1510567 69.2299315,13.6037105 C69.2299315,14.0639401 69.3303093,14.4332546 69.5310679,14.7116651 C69.7318264,14.9900755 70.0149675,15.1292787 70.3804997,15.1292787 C70.6229251,15.1292787 70.8251011,15.0663058 70.9870338,14.9403582 C71.1489664,14.8144106 71.2592873,14.6415904 71.3179997,14.4218923 L72.1617497,14.4900741 C72.0897796,14.8915913 71.8961263,15.2225539 71.5807838,15.4829719 C71.2654413,15.7433898 70.8653506,15.8735969 70.3804997,15.8735969 C69.9676188,15.8735969 69.6115618,15.7770069 69.3123179,15.5838241 C69.0130739,15.3906414 68.7824891,15.1231251 68.6205565,14.7812673 C68.4586239,14.4394096 68.3776588,14.0468945 68.3776588,13.6037105 C68.3776588,13.1681023 68.4595708,12.7817425 68.6233974,12.4446196 C68.787224,12.1074967 69.0182823,11.8432948 69.3165792,11.652006 C69.6148762,11.4607171 69.9666719,11.3650741 70.3719769,11.3650741 C70.8473581,11.3650741 71.2479223,11.4929138 71.5736815,11.7485969 C71.8994407,12.00428 72.0964084,12.3442387 72.1645906,12.7684832 Z M74.8606133,15.8735969 C74.4553083,15.8735969 74.1025656,15.7789008 73.8023747,15.589506 C73.5021838,15.4001111 73.269705,15.1363827 73.1049315,14.7983128 C72.9401579,14.4602429 72.8577724,14.0667809 72.8577724,13.6179151 C72.8577724,13.1690492 72.9401579,12.7755872 73.1049315,12.4375173 C73.269705,12.0994475 73.5021838,11.8361925 73.8023747,11.6477446 C74.1025656,11.4592967 74.4553083,11.3650741 74.8606133,11.3650741 C75.2659184,11.3650741 75.6181876,11.4592967 75.9174315,11.6477446 C76.2166754,11.8361925 76.4491542,12.0994475 76.6148747,12.4375173 C76.7805952,12.7755872 76.8634542,13.1690492 76.8634542,13.6179151 C76.8634542,14.0667809 76.7805952,14.4602429 76.6148747,14.7983128 C76.4491542,15.1363827 76.2166754,15.4001111 75.9174315,15.589506 C75.6181876,15.7789008 75.2659184,15.8735969 74.8606133,15.8735969 Z M74.8606133,15.1292787 C75.1257662,15.1292787 75.343567,15.0610976 75.5140224,14.9247332 C75.6844778,14.7883689 75.80995,14.6056056 75.8904429,14.3764378 C75.9709357,14.14727 76.0111815,13.8944316 76.0111815,13.6179151 C76.0111815,13.3432925 75.9709357,13.091401 75.8904429,12.8622332 C75.80995,12.6330654 75.6844778,12.4498286 75.5140224,12.3125173 C75.343567,12.175206 75.1257662,12.1065514 74.8606133,12.1065514 C74.5935665,12.1065514 74.3752922,12.175206 74.2057838,12.3125173 C74.0362753,12.4498286 73.9112766,12.6330654 73.8307838,12.8622332 C73.7502909,13.091401 73.7100451,13.3432925 73.7100451,13.6179151 C73.7100451,13.8944316 73.7502909,14.14727 73.8307838,14.3764378 C73.9112766,14.6056056 74.0362753,14.7883689 74.2057838,14.9247332 C74.3752922,15.0610976 74.5935665,15.1292787 74.8606133,15.1292787 Z M80.4714088,13.9559832 L80.4714088,11.4218923 L81.3435679,11.4218923 L81.3435679,15.7855287 L80.5026588,15.7855287 L80.5026588,15.2201878 L80.4572042,15.2201878 C80.3435673,15.3811734 80.1821106,15.5251114 79.9728292,15.652006 C79.7635479,15.7789005 79.5064482,15.8423469 79.2015224,15.8423469 C78.9799304,15.8423469 78.7592887,15.7860027 78.5395906,15.6733128 C78.3198925,15.5606228 78.1376027,15.3825943 77.9927156,15.1392219 C77.8478285,14.8958494 77.775386,14.5762504 77.775386,14.1804151 L77.775386,11.4218923 L78.650386,11.4218923 L78.650386,14.1662105 C78.650386,14.4578786 78.7304042,14.6813612 78.8904429,14.8366651 C79.0504815,14.9919689 79.2536045,15.0696196 79.4998179,15.0696196 C79.6645914,15.0696196 79.8213133,15.0289003 79.9699883,14.9474605 C80.1186633,14.8660207 80.2394007,14.7433894 80.3322042,14.5795628 C80.4250077,14.4157362 80.4714088,14.2078784 80.4714088,13.9559832 Z M83.3151588,13.2883696 L83.3151588,15.7855287 L82.4401588,15.7855287 L82.4401588,11.4218923 L83.2810679,11.4218923 L83.2810679,12.0724605 L83.3265224,12.0724605 C83.4363714,11.869808 83.5968812,11.7012491 83.8080565,11.5667787 C84.0192318,11.4323083 84.2772785,11.3650741 84.5822042,11.3650741 C84.8454631,11.3650741 85.0850441,11.4228387 85.3009542,11.5383696 C85.5168644,11.6539005 85.6887377,11.8338229 85.8165792,12.0781423 C85.9444208,12.3224617 86.0083406,12.6387464 86.0083406,13.027006 L86.0083406,15.7855287 L85.1361815,15.7855287 L85.1361815,13.0724605 C85.1361815,12.7807924 85.0561634,12.5521015 84.8961247,12.386381 C84.736086,12.2206604 84.532963,12.1378014 84.2867497,12.1378014 C84.1219761,12.1378014 83.9652542,12.1813616 83.8165792,12.2684832 C83.6679042,12.3556049 83.5471668,12.4843915 83.4543633,12.6548469 C83.3615598,12.8253023 83.3151588,13.0364744 83.3151588,13.2883696 Z M89.0736815,11.4218923 L89.0736815,12.1378014 L88.2214088,12.1378014 L88.2214088,14.495756 C88.2214088,14.7419693 88.2734916,14.8982178 88.3776588,14.964506 C88.481826,15.0307942 88.6011429,15.0639378 88.7356133,15.0639378 C88.7981136,15.0639378 88.8539843,15.0601499 88.9032269,15.0525741 C88.9524696,15.0449983 88.9922419,15.0374227 89.0225451,15.0298469 L89.1787951,15.7485969 C89.1352343,15.7656424 89.0604244,15.7855286 88.9543633,15.808256 C88.8483022,15.8309833 88.7147808,15.8423469 88.5537951,15.8423469 C88.3511426,15.8423469 88.1574892,15.7978397 87.9728292,15.7088241 C87.7881692,15.6198085 87.6376025,15.4881811 87.5211247,15.3139378 C87.4046468,15.1396945 87.3464088,14.9247345 87.3464088,14.6690514 L87.3464088,12.1378014 L86.7412951,12.1378014 L86.7412951,11.4218923 L87.3464088,11.4218923 L87.3464088,10.4900741 L88.2214088,10.4900741 L88.2214088,11.4218923 L89.0736815,11.4218923 Z" id="æternity-account" fill="#BD2A67"></path>
                        </g>
                        <g id="Rectangle-10">
                            <use fill="black" fill-opacity="1" filter="url(#filter-6)" xlink:href="#path-5"></use>
                            <use fill="#FFFFFF" fill-rule="evenodd" xlink:href="#path-5"></use>
                        </g>
                    </g>
                    <g id="Group-4" transform="translate(17.000000, 129.000000)" fill="#D3DCE6">
                        <g id="Group-10" transform="translate(0.043077, 0.537525)">
                            <path d="M19.70163,0 C17.1985301,0 15.4828242,1.62950889 14,3.64841365 L14.8786904,4.98573343 C16.2370966,3.04968827 17.6807331,1.52642422 19.70163,1.52642422 C22.0229255,1.52642422 23.9531933,3.27955887 24.3096437,5.56657226 L18.5471697,5.56657226 L18.5471697,7.09305968 L25.8013852,7.09305968 C25.830685,6.8427744 25.8461538,6.58812808 25.8461538,6.32981597 C25.8461538,2.83953712 23.0897291,0 19.70163,0" id="SHAPE"></path>
                            <path d="M13.3086386,5.59713549 C11.2214132,2.36269339 9.25125586,0 6.19543552,0 C2.77923621,0 0,2.81479478 0,6.27466104 C0,9.73446466 2.77923621,12.5492594 6.19543552,12.5492594 C8.71478541,12.5492594 10.4430998,10.9395254 11.9363605,8.94309927 L11.0568817,7.60891148 C9.68760066,9.52720976 8.23232287,11.0360731 6.19543552,11.0360731 C3.60036446,11.0360731 1.4891627,8.90011957 1.4891627,6.27466104 C1.4891627,3.64920252 3.60036446,1.5131237 6.19543552,1.5131237 C8.68726156,1.5131237 10.2427873,3.60534568 12.4141134,6.94679848 C14.5854395,10.2882513 16.4760834,12.5492594 19.5319649,12.5492594 C22.1581685,12.5492594 24.4076624,10.8855815 25.3076923,8.54437793 L23.6681882,8.54437793 C22.8699353,10.0273657 21.3152047,11.0360731 19.5319649,11.0360731 C17.0400777,11.0360731 15.395864,8.83157759 13.3086386,5.59713549 Z" id="SHAPE"></path>
                        </g>
                    </g>
                </g>
            </g>
        </g>
    </g>
</svg>