<?xml version="1.0" encoding="UTF-8"?>
<svg width="280px" height="304px" viewBox="0 0 280 304" version="1.1" xmlns="http://www.w3.org/2000/svg" xmlns:xlink="http://www.w3.org/1999/xlink">
    <!-- Generator: Sketch 52.3 (67297) - http://www.bohemiancoding.com/sketch -->
    <title>Artboard Copy</title>
    <desc>Created with Sketch.</desc>
    <defs>
        <rect id="path-1" x="0" y="0" width="282" height="282"></rect>
        <linearGradient x1="28.4663915%" y1="50%" x2="91.1166668%" y2="50%" id="linearGradient-3">
            <stop stop-color="#D3DCE6" offset="0%"></stop>
            <stop stop-color="#D3DCE6" stop-opacity="0" offset="100%"></stop>
        </linearGradient>
        <filter x="-12.8%" y="-55.4%" width="125.6%" height="210.7%" filterUnits="objectBoundingBox" id="filter-4">
            <feOffset dx="0" dy="0" in="SourceAlpha" result="shadowOffsetOuter1"></feOffset>
            <feGaussianBlur stdDeviation="8" in="shadowOffsetOuter1" result="shadowBlurOuter1"></feGaussianBlur>
            <feColorMatrix values="0 0 0 0 0.105882353   0 0 0 0 0.266666667   0 0 0 0 0.474509804  0 0 0 0.15 0" type="matrix" in="shadowBlurOuter1" result="shadowMatrixOuter1"></feColorMatrix>
            <feMerge>
                <feMergeNode in="shadowMatrixOuter1"></feMergeNode>
                <feMergeNode in="SourceGraphic"></feMergeNode>
            </feMerge>
        </filter>
        <path d="M28,0 L214,3.19744231e-14 C229.463973,1.53989703e-14 242,12.536027 242,28 L242,28 C242,43.463973 229.463973,56 214,56 L28,56 C12.536027,56 1.8937905e-15,43.463973 0,28 L0,28 C-1.8937905e-15,12.536027 12.536027,6.39339943e-15 28,3.55271368e-15 Z" id="path-5"></path>
        <path d="M117.336388,323 C116.230132,323 114.861224,322.240001 114.274374,321.295296 L82.3841903,269.958727 C79.5454208,265.059421 81.203445,258.810021 86.1642051,255.95617 C91.0906191,253.122077 97.3902856,254.804446 100.224314,259.695569 L108.466667,273.920678 L108.466667,220.368421 L108.466667,203.200882 C108.466667,197.56709 113.038474,193 118.766667,193 C124.4552,193 129.066667,197.626769 129.066667,203.200882 L129.066667,244.315789 L173.7,251.157895 C173.7,251.157895 184,254.578947 184,268.304136 L184,275.105263 L184,278.526316 L184,285.368421 C184,291.293606 181.472795,301.117587 178.586602,306.644445 C174.744684,314.001447 167.487558,322.24018 167.487558,322.24018 C167.12624,322.659817 166.388113,323 165.827693,323 L117.336388,323 Z" id="path-7"></path>
        <filter x="-23.3%" y="-18.5%" width="146.6%" height="136.9%" filterUnits="objectBoundingBox" id="filter-8">
            <feOffset dx="0" dy="0" in="SourceAlpha" result="shadowOffsetOuter1"></feOffset>
            <feGaussianBlur stdDeviation="8" in="shadowOffsetOuter1" result="shadowBlurOuter1"></feGaussianBlur>
            <feColorMatrix values="0 0 0 0 0.105882353   0 0 0 0 0.266666667   0 0 0 0 0.474509804  0 0 0 0.15 0" type="matrix" in="shadowBlurOuter1"></feColorMatrix>
        </filter>
    </defs>
    <g id="Artboard-Copy" stroke="none" stroke-width="1" fill="none" fill-rule="evenodd">
        <rect fill="#FFFFFF" x="0" y="0" width="280" height="304"></rect>
        <circle id="Oval" fill="#EDF3F7" cx="213.5" cy="186" r="16"></circle>
        <path d="M0,47.0901284 L0,0 L117.990271,0 C117.995068,0.332760311 117.997475,0.666099111 117.997475,1 C117.997475,38.555363 87.5528377,69 49.9974747,69 C30.2258382,69 12.4250594,60.5617555 -3.37507799e-14,47.0901284 Z" id="Oval-3" fill="#EDF3F7"></path>
        <rect id="Rectangle" fill="#EDF3F7" transform="translate(67.583261, 143.916739) rotate(45.000000) translate(-67.583261, -143.916739) " x="26.5832611" y="102.916739" width="82" height="82"></rect>
        <rect id="Rectangle-Copy" fill="#EDF3F7" transform="translate(192.248737, 42.748737) rotate(22.000000) translate(-192.248737, -42.748737) " x="167.748737" y="18.2487373" width="49" height="49"></rect>
        <g id="Group-15" transform="translate(-1.000000, 29.000000)">
            <mask id="mask-2" fill="white">
                <use xlink:href="#path-1"></use>
            </mask>
            <g id="Rectangle"></g>
            <g id="Group-14" mask="url(#mask-2)">
                <g transform="translate(-56.000000, 60.000000)">
                    <path d="M132.521786,64.5572105 C132.171058,63.6530912 131.997683,62.6976766 132.000023,61.7436288 L132.000023,15.4276975 C132.000023,11.1628152 135.457394,7.70544499 139.722276,7.70544499 C143.987158,7.70544499 147.444528,11.1628152 147.444528,15.4276975 L147.444528,43.9103147 L170.091702,22.6330953 C188.835832,3.87957487 215.890612,-3.94604544 241.751745,1.90536052 C267.612878,7.75676648 288.663614,26.4668633 297.508868,51.4628281 C298.931616,55.4833997 296.825664,59.8960823 292.805091,61.3188305 C288.784518,62.7415787 284.371834,60.6356267 282.949085,56.6150551 C275.872882,36.6182832 259.032293,21.6502058 238.343387,16.969081 C217.65448,12.2879562 196.010657,18.5484525 180.841545,33.7197953 L159.217473,54.0389598 L186.055791,54.0389598 C190.320673,54.0389598 193.778043,57.49633 193.778043,61.7612122 C193.778043,66.0260945 190.320673,69.4834647 186.055791,69.4834647 L139.722276,69.4834647 C136.480421,69.4834647 133.705143,67.4858174 132.560249,64.6543327 L132.521786,64.5572105 Z" id="Combined-Shape" fill="url(#linearGradient-3)" transform="translate(214.976667, 34.741732) scale(-1, 1) translate(-214.976667, -34.741732) "></path>
                    <g id="atoms/button/active" stroke-width="1" fill="none" transform="translate(0.000000, 81.000000)">
                        <g id="color-+-CONFIRM-Mask" filter="url(#filter-4)">
                            <mask id="mask-6" fill="white">
                                <use xlink:href="#path-5"></use>
                            </mask>
                            <use id="Mask" fill="#6948A1" xlink:href="#path-5"></use>
                            <g id="fill/primary/0" mask="url(#mask-6)" fill="#FF0D6A">
                                <rect id="Rectangle-Copy-20" x="0" y="0" width="248" height="56"></rect>
                            </g>
                        </g>
                        <path d="M106.607203,26.2645661 C106.53334,25.521314 105.947048,25.0873655 104.991438,25.0873655 C104.012745,25.0873655 103.472618,25.5351634 103.472618,26.1445378 C103.458769,26.8231593 104.146623,27.1278465 104.968355,27.3171219 L105.817786,27.5202467 C107.461251,27.8895645 108.647684,28.7251461 108.652301,30.2993634 C108.647684,32.0305407 107.290441,33.1338777 104.982205,33.1338777 C102.687818,33.1338777 101.224396,32.0767054 101.173615,30.0316079 L103.107917,30.0316079 C103.172547,30.9779849 103.920416,31.4580981 104.959122,31.4580981 C105.974746,31.4580981 106.630286,30.9872178 106.634902,30.2947469 C106.630286,29.6576736 106.057843,29.3622194 105.02837,29.1129298 L103.998896,28.8544074 C102.401596,28.4712401 101.418288,27.6725903 101.422904,26.2784155 C101.413671,24.5610876 102.932491,23.4162023 105.005287,23.4162023 C107.110399,23.4162023 108.495341,24.5795535 108.523039,26.2645661 L106.607203,26.2645661 Z M111.291086,33 L111.291086,23.5454636 L117.661818,23.5454636 L117.661818,25.1935444 L113.290019,25.1935444 L113.290019,27.4463831 L117.334049,27.4463831 L117.334049,29.094464 L113.290019,29.094464 L113.290019,31.3519192 L117.680284,31.3519192 L117.680284,33 L111.291086,33 Z M128.462527,23.5454636 L128.462527,33 L126.735966,33 L122.622689,27.0493665 L122.553442,27.0493665 L122.553442,33 L120.554509,33 L120.554509,23.5454636 L122.308769,23.5454636 L126.389731,29.4914806 L126.472827,29.4914806 L126.472827,23.5454636 L128.462527,23.5454636 Z M134.762176,33 L131.410617,33 L131.410617,23.5454636 L134.789875,23.5454636 C137.642855,23.5454636 139.387882,25.3181891 139.387882,28.2634988 C139.387882,31.2180415 137.642855,33 134.762176,33 Z M133.40955,31.2872886 L134.67908,31.2872886 C136.456422,31.2872886 137.393566,30.3732269 137.393566,28.2634988 C137.393566,26.1630037 136.456422,25.258175 134.683696,25.258175 L133.40955,25.258175 L133.40955,31.2872886 Z" id="CONFIRM" fill="#FFFFFF"></path>
                    </g>
                </g>
            </g>
        </g>
        <g id="Rectangle-46">
            <use fill="black" fill-opacity="1" filter="url(#filter-8)" xlink:href="#path-7"></use>
            <use fill="#FFFFFF" fill-rule="evenodd" xlink:href="#path-7"></use>
        </g>
    </g>
</svg>