<?xml version="1.0" encoding="UTF-8"?>
<svg width="242px" height="308px" viewBox="0 0 242 308" version="1.1" xmlns="http://www.w3.org/2000/svg" xmlns:xlink="http://www.w3.org/1999/xlink">
    <!-- Generator: Sketch 52.3 (67297) - http://www.bohemiancoding.com/sketch -->
    <title>step-02</title>
    <desc>Created with Sketch.</desc>
    <defs>
        <rect id="path-1" x="0" y="0" width="282" height="282"></rect>
        <linearGradient x1="28.4663915%" y1="50%" x2="91.1166668%" y2="50%" id="linearGradient-3">
            <stop stop-color="#D3DCE6" offset="0%"></stop>
            <stop stop-color="#D3DCE6" stop-opacity="0" offset="100%"></stop>
        </linearGradient>
        <filter x="-16.7%" y="-55.4%" width="133.3%" height="210.7%" filterUnits="objectBoundingBox" id="filter-4">
            <feOffset dx="0" dy="0" in="SourceAlpha" result="shadowOffsetOuter1"></feOffset>
            <feGaussianBlur stdDeviation="8" in="shadowOffsetOuter1" result="shadowBlurOuter1"></feGaussianBlur>
            <feColorMatrix values="0 0 0 0 0.105882353   0 0 0 0 0.266666667   0 0 0 0 0.474509804  0 0 0 0.15 0" type="matrix" in="shadowBlurOuter1" result="shadowMatrixOuter1"></feColorMatrix>
            <feMerge>
                <feMergeNode in="shadowMatrixOuter1"></feMergeNode>
                <feMergeNode in="SourceGraphic"></feMergeNode>
            </feMerge>
        </filter>
        <path d="M28,0 L158,3.55271368e-15 C173.463973,7.12027924e-16 186,12.536027 186,28 L186,28 C186,43.463973 173.463973,56 158,56 L28,56 C12.536027,56 1.8937905e-15,43.463973 0,28 L0,28 C-1.8937905e-15,12.536027 12.536027,2.84068575e-15 28,0 Z" id="path-5"></path>
        <path d="M123.33237,299 C122.228333,299 120.864288,298.243976 120.280081,297.302332 L92.2229254,252.078873 C89.7148863,247.744872 91.1797427,242.216557 95.5625501,239.691996 C99.915013,237.184914 105.480738,238.673164 107.984588,242.999926 L115.266667,255.583677 L115.266667,208.210526 L115.266667,193.023857 C115.266667,188.040118 119.305837,184 124.366667,184 C129.392458,184 133.466667,188.092911 133.466667,193.023857 L133.466667,229.394737 L172.9,235.447368 C172.9,235.447368 182,238.473684 182,250.615197 L182,256.631579 L182,259.657895 L182,265.710526 C182,270.952036 179.767227,279.642481 177.217289,284.531624 C173.822973,291.039742 167.487628,298.237967 167.487628,298.237967 C167.126271,298.658826 166.383004,299 165.840686,299 L123.33237,299 Z" id="path-7"></path>
        <filter x="-14.8%" y="-11.7%" width="129.7%" height="123.5%" filterUnits="objectBoundingBox" id="filter-8">
            <feOffset dx="0" dy="0" in="SourceAlpha" result="shadowOffsetOuter1"></feOffset>
            <feGaussianBlur stdDeviation="4.5" in="shadowOffsetOuter1" result="shadowBlurOuter1"></feGaussianBlur>
            <feColorMatrix values="0 0 0 0 0.105882353   0 0 0 0 0.266666667   0 0 0 0 0.474509804  0 0 0 0.15 0" type="matrix" in="shadowBlurOuter1"></feColorMatrix>
        </filter>
    </defs>
    <g id="Landing-Page" stroke="none" stroke-width="1" fill="none" fill-rule="evenodd">
        <g id="00.0-Landing" transform="translate(-178.000000, -2238.000000)">
            <g id="step-02" transform="translate(178.000000, 2238.000000)">
                <circle id="Oval" fill="#EDF3F7" cx="215" cy="184" r="16"></circle>
                <path d="M1,47.0901284 L1,0 L118.992796,0 C118.997593,0.332760311 119,0.666099111 119,1 C119,38.555363 88.5547114,69 50.9985447,69 C31.2264851,69 13.4253253,60.5617555 1,47.0901284 Z" id="Oval-3" fill="#EDF3F7"></path>
                <rect id="Rectangle" fill="#EDF3F7" transform="translate(69.083261, 141.916739) rotate(45.000000) translate(-69.083261, -141.916739) " x="28.0832611" y="100.916739" width="82" height="82"></rect>
                <rect id="Rectangle-Copy" fill="#EDF3F7" transform="translate(193.748737, 40.748737) rotate(22.000000) translate(-193.748737, -40.748737) " x="169.248737" y="16.2487373" width="49" height="49"></rect>
                <g id="Group-15" transform="translate(0.000000, 18.000000)">
                    <mask id="mask-2" fill="white">
                        <use xlink:href="#path-1"></use>
                    </mask>
                    <g id="Rectangle"></g>
                    <g id="Group-14" mask="url(#mask-2)">
                        <g transform="translate(-28.000000, 60.000000)">
                            <path d="M104.521786,64.5572105 C104.171058,63.6530912 103.997683,62.6976766 104.000023,61.7436288 L104.000023,15.4276975 C104.000023,11.1628152 107.457394,7.70544499 111.722276,7.70544499 C115.987158,7.70544499 119.444528,11.1628152 119.444528,15.4276975 L119.444528,43.9103147 L142.091702,22.6330953 C160.835832,3.87957487 187.890612,-3.94604544 213.751745,1.90536052 C239.612878,7.75676648 260.663614,26.4668633 269.508868,51.4628281 C270.931616,55.4833997 268.825664,59.8960823 264.805091,61.3188305 C260.784518,62.7415787 256.371834,60.6356267 254.949085,56.6150551 C247.872882,36.6182832 231.032293,21.6502058 210.343387,16.969081 C189.65448,12.2879562 168.010657,18.5484525 152.841545,33.7197953 L131.217473,54.0389598 L158.055791,54.0389598 C162.320673,54.0389598 165.778043,57.49633 165.778043,61.7612122 C165.778043,66.0260945 162.320673,69.4834647 158.055791,69.4834647 L111.722276,69.4834647 C108.480421,69.4834647 105.705143,67.4858174 104.560249,64.6543327 L104.521786,64.5572105 Z" id="Combined-Shape" fill="url(#linearGradient-3)" transform="translate(186.976667, 34.741732) scale(-1, 1) translate(-186.976667, -34.741732) "></path>
                            <g id="atoms/button/active" stroke-width="1" fill="none" transform="translate(0.000000, 81.000000)">
                                <g id="color-+-CONFIRM-Mask" filter="url(#filter-4)">
                                    <mask id="mask-6" fill="white">
                                        <use xlink:href="#path-5"></use>
                                    </mask>
                                    <use id="Mask" fill="#6948A1" xlink:href="#path-5"></use>
                                    <g id="fill/primary/0" mask="url(#mask-6)" fill="#FF0D6A">
                                        <rect id="Rectangle-Copy-20" x="0" y="0" width="191" height="56"></rect>
                                    </g>
                                </g>
                                <path d="M79.1034802,26.2322443 C79.0634705,25.8321476 78.9049731,25.5197691 78.627983,25.2950994 C78.350993,25.0704297 77.9647516,24.9580966 77.4692473,24.9580966 C76.9860536,24.9580966 76.5928875,25.0611969 76.2897373,25.2674006 C75.9865871,25.4736043 75.8350143,25.7413573 75.8350143,26.0706676 C75.8350143,26.390745 75.9965894,26.6446487 76.3197444,26.8323864 C76.6428994,27.020124 77.076844,27.2032425 77.621591,27.3817472 L78.1063211,27.5387074 C78.9957669,27.8310857 79.6805375,28.1919368 80.1606535,28.6212713 C80.6407695,29.0506058 80.880824,29.6315068 80.880824,30.3639915 C80.880824,30.9333599 80.7369452,31.4265486 80.4491833,31.8435724 C80.1614215,32.2605963 79.7582532,32.5814383 79.2396663,32.806108 C78.7210794,33.0307776 78.1124799,33.1431108 77.4138495,33.1431108 C76.7706171,33.1431108 76.1758669,33.0323164 75.6295811,32.8107244 C75.0832952,32.5891324 74.6431954,32.25598 74.3092686,31.8112571 C73.9753417,31.3665342 73.8022255,30.8087155 73.7899149,30.1377841 L75.5718751,30.1377841 C75.5995741,30.6240555 75.7834619,30.9902923 76.1235441,31.2365057 C76.4636263,31.482719 76.8937238,31.6058239 77.4138495,31.6058239 C77.9616742,31.6058239 78.3825389,31.4850272 78.6764561,31.2434304 C78.9703733,31.0018335 79.1173296,30.7133066 79.1173296,30.3778409 C79.1173296,30.0485306 78.9696038,29.7730835 78.6741478,29.5514915 C78.3786918,29.3298995 77.8816561,29.1113884 77.1830257,28.8959517 L76.6844461,28.7528409 C75.9150294,28.5220159 75.2848865,28.1873246 74.7939987,27.7487571 C74.3031108,27.3101896 74.0576705,26.750832 74.0576705,26.0706676 C74.0576705,25.5413089 74.2069352,25.0773576 74.5054688,24.6787997 C74.8040025,24.2802419 75.2110179,23.9701716 75.7265271,23.7485795 C76.2420363,23.5269875 76.8260148,23.4161932 77.4784802,23.4161932 C78.1340233,23.4161932 78.712616,23.5331428 79.2142757,23.7670455 C79.7159354,24.0009481 80.1098708,24.3287147 80.3960938,24.7503551 C80.6823169,25.1719955 80.8300427,25.6659536 80.8392757,26.2322443 L79.1034802,26.2322443 Z M89.7795455,31.4673295 L89.7795455,33 L83.6350143,33 L83.6350143,23.5454545 L89.7564631,23.5454545 L89.7564631,25.078125 L85.4585228,25.078125 L85.4585228,27.506392 L89.165554,27.506392 L89.165554,29.034446 L85.4585228,29.034446 L85.4585228,31.4673295 L89.7795455,31.4673295 Z M100.187855,23.5454545 L100.187855,33 L98.4012784,33 L94.5234375,26.6754261 L94.4449574,26.6754261 L94.4449574,33 L92.6214489,33 L92.6214489,23.5454545 L94.421875,23.5454545 L98.290483,29.8838778 L98.3689631,29.8838778 L98.3689631,23.5454545 L100.187855,23.5454545 Z M106.284375,33 L103.075923,33 L103.075923,23.5454545 L106.325923,23.5454545 C107.246146,23.5454545 108.039402,23.7339588 108.705717,24.110973 C109.372032,24.4879872 109.883687,25.0296485 110.240696,25.735973 C110.597705,26.4422976 110.776207,27.2863351 110.776207,28.2681108 C110.776207,29.2529642 110.596936,30.0985405 110.238388,30.8048651 C109.87984,31.5111896 109.365107,32.0536203 108.694176,32.4321733 C108.023245,32.8107263 107.219986,33 106.284375,33 Z M106.224361,25.1242898 L104.899432,25.1242898 L104.899432,31.4211648 L106.196662,31.4211648 C107.104574,31.4211648 107.790883,31.163414 108.255611,30.6479048 C108.720338,30.1323956 108.952699,29.3391389 108.952699,28.2681108 C108.952699,27.1970827 108.721877,26.4053648 108.260227,25.8929332 C107.798577,25.3805017 107.119962,25.1242898 106.224361,25.1242898 Z" id="CONFIRM" fill="#FFFFFF"></path>
                            </g>
                        </g>
                    </g>
                </g>
                <g id="Rectangle-46">
                    <use fill="black" fill-opacity="1" filter="url(#filter-8)" xlink:href="#path-7"></use>
                    <use fill="#FFFFFF" fill-rule="evenodd" xlink:href="#path-7"></use>
                </g>
            </g>
        </g>
    </g>
</svg>